<svg width="354" height="18" viewBox="0 0 354 18" fill="none" xmlns="http://www.w3.org/2000/svg">
<path d="M0 3.36639C0 1.50718 1.50719 0 3.36639 0H70.6942V17.5052H3.36639C1.50718 17.5052 0 15.9981 0 14.1388V3.36639Z" fill="#4FAFBF"/>
<path d="M70.6943 -7.62939e-06H141.389V17.5052H70.6943V-7.62939e-06Z" fill="#9FCF62"/>
<path d="M141.389 -7.62939e-06H212.083V17.5052H141.389V-7.62939e-06Z" fill="#F1E151"/>
<path d="M212.082 -7.62939e-06H282.776V17.5052H212.082V-7.62939e-06Z" fill="#F1A53B"/>
<path d="M282.776 -7.62939e-06H350.104C351.963 -7.62939e-06 353.471 1.50718 353.471 3.36638V14.1388C353.471 15.998 351.963 17.5052 350.104 17.5052H282.776V-7.62939e-06Z" fill="#EB4E47"/>
<path d="M26.9061 12.1276C26.3316 12.1276 25.8791 11.9947 25.5488 11.729C25.2256 11.4561 24.9958 11.0898 24.8593 10.6302C24.7301 10.1706 24.6654 9.66425 24.6654 9.11127C24.6654 8.50083 24.7265 7.99811 24.8486 7.60312C24.9778 7.20095 25.1574 6.88496 25.3872 6.65515C25.6242 6.41815 25.9043 6.25297 26.2274 6.15961C26.5578 6.05907 26.9205 6.0088 27.3155 6.0088C27.89 6.0088 28.3568 6.09498 28.7159 6.26734C29.0821 6.43251 29.3514 6.66951 29.5238 6.97832C29.6962 7.28713 29.7823 7.65698 29.7823 8.08788V12.0198H28.8344V8.17406C28.8344 7.7288 28.7231 7.39126 28.5004 7.16145C28.2778 6.92446 27.8936 6.80596 27.3478 6.80596C27.0174 6.80596 26.7194 6.867 26.4537 6.98909C26.1951 7.11118 25.9904 7.3374 25.8396 7.66776C25.696 7.99811 25.6242 8.48287 25.6242 9.12204C25.6242 9.53857 25.6637 9.91561 25.7427 10.2531C25.8289 10.5835 25.9761 10.8456 26.1843 11.0395C26.3926 11.2334 26.6835 11.3304 27.0569 11.3304C27.1646 11.3304 27.2652 11.3232 27.3585 11.3088C27.4519 11.2945 27.5417 11.2729 27.6279 11.2442L27.7248 11.9875C27.6099 12.0378 27.477 12.0737 27.3262 12.0952C27.1826 12.1168 27.0426 12.1276 26.9061 12.1276ZM25.1201 5.17932V4.75919L25.9065 4.41448H29.6984V5.17932H25.1201ZM28.8043 4.75919V3.54191H29.7092V4.75919H28.8043ZM34.3737 12.1276C33.9141 12.1276 33.5155 12.0378 33.1779 11.8582C32.8476 11.6715 32.6214 11.413 32.4993 11.0826H32.4562L32.4023 12.0198H31.6159V6.11652H32.5747V9.53139C32.5747 9.89047 32.6357 10.2065 32.7578 10.4794C32.8871 10.7451 33.0702 10.9534 33.3072 11.1042C33.5514 11.2478 33.8422 11.3196 34.1798 11.3196C34.6035 11.3196 34.9195 11.2083 35.1278 10.9857C35.336 10.763 35.4402 10.4363 35.4402 10.0054V6.11652H36.3989V10.07C36.3989 10.544 36.3163 10.9318 36.1511 11.2334C35.9931 11.5351 35.7633 11.7613 35.4617 11.9121C35.1601 12.0557 34.7974 12.1276 34.3737 12.1276ZM39.8166 12.0198V7.82934C39.8166 7.47744 39.734 7.2189 39.5688 7.05373C39.4108 6.88855 39.1415 6.80596 38.7608 6.80596C38.5023 6.80596 38.2581 6.84187 38.0283 6.91368C37.8057 6.97832 37.5902 7.07168 37.382 7.19377V6.33197C37.5256 6.26016 37.7303 6.18834 37.996 6.11652C38.2617 6.04471 38.5777 6.0088 38.944 6.0088C39.3174 6.0088 39.6406 6.06266 39.9135 6.17039C40.1864 6.27811 40.3983 6.45765 40.5491 6.70901C40.6999 6.95318 40.7753 7.27995 40.7753 7.6893V12.0198H39.8166ZM42.4693 12.0198V9.97306C42.4693 9.52062 42.5698 9.19385 42.7709 8.99277C42.972 8.7845 43.2269 8.64087 43.5357 8.56187L43.5465 8.52955L42.3615 8.07711V7.72162C42.3615 7.42717 42.4585 7.15068 42.6524 6.89214C42.8463 6.62642 43.1228 6.41456 43.4819 6.25656C43.8481 6.09139 44.2826 6.0088 44.7853 6.0088C45.2234 6.0088 45.6292 6.08061 46.0026 6.22425C46.3761 6.3607 46.6741 6.57974 46.8967 6.88137C47.1266 7.17581 47.2415 7.56362 47.2415 8.04479V12.0198H46.2827V8.14174C46.2827 7.66058 46.1355 7.31945 45.841 7.11836C45.5538 6.91009 45.1983 6.80596 44.7746 6.80596C44.3365 6.80596 43.9882 6.89932 43.7296 7.08604C43.4711 7.26558 43.3418 7.4954 43.3418 7.77548L44.5053 8.35719L44.4191 8.87427C44.1534 8.87427 43.92 8.96404 43.7189 9.14358C43.525 9.31594 43.428 9.59244 43.428 9.97306V12.0198H42.4693Z" fill="#43636C"/>
<path d="M106.08 12.1276C105.505 12.1276 105.053 11.9947 104.722 11.729C104.399 11.4561 104.169 11.0898 104.033 10.6302C103.904 10.1706 103.839 9.66425 103.839 9.11127C103.839 8.50083 103.9 7.99811 104.022 7.60312C104.151 7.20095 104.331 6.88496 104.561 6.65515C104.798 6.41815 105.078 6.25297 105.401 6.15961C105.731 6.05907 106.094 6.0088 106.489 6.0088C107.064 6.0088 107.53 6.09498 107.889 6.26734C108.256 6.43251 108.525 6.66951 108.697 6.97832C108.87 7.28713 108.956 7.65698 108.956 8.08788V12.0198H108.008V8.17406C108.008 7.7288 107.897 7.39126 107.674 7.16145C107.451 6.92446 107.067 6.80596 106.521 6.80596C106.191 6.80596 105.893 6.867 105.627 6.98909C105.369 7.11118 105.164 7.3374 105.013 7.66776C104.87 7.99811 104.798 8.48287 104.798 9.12204C104.798 9.53857 104.837 9.91561 104.916 10.2531C105.002 10.5835 105.15 10.8456 105.358 11.0395C105.566 11.2334 105.857 11.3304 106.23 11.3304C106.338 11.3304 106.439 11.3232 106.532 11.3088C106.625 11.2945 106.715 11.2729 106.801 11.2442L106.898 11.9875C106.783 12.0378 106.651 12.0737 106.5 12.0952C106.356 12.1168 106.216 12.1276 106.08 12.1276ZM104.294 5.17932V4.75919L105.08 4.41448H108.872V5.17932H104.294ZM107.978 4.75919V3.54191H108.883V4.75919H107.978Z" fill="#43636C"/>
<path d="M160.476 12.1276C159.629 12.1276 159.022 11.9336 158.655 11.5458C158.289 11.158 158.106 10.605 158.106 9.88688V6.11652H159.065V9.89765C159.065 10.3788 159.18 10.7379 159.41 10.9749C159.639 11.2119 159.995 11.3304 160.476 11.3304C160.964 11.3304 161.323 11.2119 161.553 10.9749C161.79 10.7379 161.909 10.3788 161.909 9.89765V3.99435H162.868V9.88688C162.868 10.605 162.681 11.158 162.307 11.5458C161.941 11.9336 161.331 12.1276 160.476 12.1276ZM166.298 12.0198V7.82934C166.298 7.47744 166.216 7.2189 166.05 7.05373C165.892 6.88855 165.623 6.80596 165.243 6.80596C164.984 6.80596 164.74 6.84187 164.51 6.91368C164.287 6.97832 164.072 7.07168 163.864 7.19377V6.33197C164.007 6.26016 164.212 6.18834 164.478 6.11652C164.743 6.04471 165.059 6.0088 165.426 6.0088C165.799 6.0088 166.122 6.06266 166.395 6.17039C166.668 6.27811 166.88 6.45765 167.031 6.70901C167.182 6.95318 167.257 7.27995 167.257 7.6893V12.0198H166.298ZM171.041 12.1276C170.617 12.1276 170.251 12.0557 169.942 11.9121C169.64 11.7613 169.407 11.5351 169.242 11.2334C169.084 10.9318 169.005 10.5404 169.005 10.0592V6.11652H169.964V10.0054C169.964 10.4363 170.071 10.763 170.287 10.9857C170.509 11.2083 170.829 11.3196 171.245 11.3196C171.748 11.3196 172.136 11.158 172.409 10.8349C172.689 10.5117 172.829 10.0772 172.829 9.53139V6.11652H173.788V12.0198H172.991L172.948 11.1473H172.894C172.764 11.4345 172.538 11.6715 172.215 11.8582C171.899 12.0378 171.508 12.1276 171.041 12.1276ZM175.557 12.0198V9.97306C175.557 9.52062 175.658 9.19385 175.859 8.99277C176.06 8.7845 176.315 8.64087 176.624 8.56187L176.635 8.52955L175.45 8.07711V7.72162C175.45 7.42717 175.547 7.15068 175.741 6.89214C175.935 6.62642 176.211 6.41456 176.57 6.25656C176.936 6.09139 177.371 6.0088 177.874 6.0088C178.312 6.0088 178.717 6.08061 179.091 6.22425C179.464 6.3607 179.762 6.57974 179.985 6.88137C180.215 7.17581 180.33 7.56362 180.33 8.04479V12.0198H179.371V8.14174C179.371 7.66058 179.224 7.31945 178.929 7.11836C178.642 6.91009 178.286 6.80596 177.863 6.80596C177.425 6.80596 177.076 6.89932 176.818 7.08604C176.559 7.26558 176.43 7.4954 176.43 7.77548L177.593 8.35719L177.507 8.87427C177.242 8.87427 177.008 8.96404 176.807 9.14358C176.613 9.31594 176.516 9.59244 176.516 9.97306V12.0198H175.557ZM185.529 12.0198V8.08788C185.529 7.62108 185.421 7.29072 185.205 7.09682C184.997 6.89573 184.645 6.79519 184.15 6.79519C183.791 6.79519 183.446 6.84546 183.116 6.946C182.792 7.03936 182.484 7.17222 182.189 7.34458V6.45047C182.397 6.34274 182.677 6.2422 183.029 6.14884C183.388 6.05548 183.791 6.0088 184.236 6.0088C184.616 6.0088 184.947 6.05189 185.227 6.13807C185.507 6.21707 185.737 6.33915 185.916 6.50433C186.103 6.66951 186.243 6.88137 186.336 7.13991C186.43 7.39126 186.477 7.6893 186.477 8.03402V12.0198H185.529ZM183.676 12.1276C183.044 12.1276 182.559 11.9839 182.221 11.6967C181.891 11.4022 181.726 10.9821 181.726 10.4363C181.726 9.8402 181.941 9.38058 182.372 9.0574C182.81 8.73423 183.518 8.54392 184.494 8.48646L185.722 8.41106V9.20822L184.624 9.28363C183.891 9.3339 183.385 9.4488 183.105 9.62834C182.832 9.80788 182.695 10.07 182.695 10.4147C182.695 10.7379 182.796 10.9749 182.997 11.1257C183.205 11.2765 183.493 11.3519 183.859 11.3519C183.981 11.3519 184.092 11.3448 184.193 11.3304C184.293 11.3088 184.39 11.2837 184.484 11.255L184.634 11.9767C184.498 12.027 184.347 12.0629 184.182 12.0845C184.024 12.1132 183.855 12.1276 183.676 12.1276ZM189.895 12.0198V7.82934C189.895 7.47744 189.812 7.2189 189.647 7.05373C189.489 6.88855 189.219 6.80596 188.839 6.80596C188.58 6.80596 188.336 6.84187 188.106 6.91368C187.884 6.97832 187.668 7.07168 187.46 7.19377V6.33197C187.604 6.26016 187.808 6.18834 188.074 6.11652C188.34 6.04471 188.656 6.0088 189.022 6.0088C189.395 6.0088 189.719 6.06266 189.991 6.17039C190.264 6.27811 190.476 6.45765 190.627 6.70901C190.778 6.95318 190.853 7.27995 190.853 7.6893V12.0198H189.895ZM193.571 12.0198L191.729 6.11652H192.698L194.292 11.1903H194.422C194.594 11.1903 194.763 11.1509 194.928 11.0719C195.093 10.9857 195.233 10.8779 195.348 10.7487C195.564 10.5117 195.722 10.2136 195.822 9.85457C195.923 9.4883 195.973 9.12922 195.973 8.77732C195.973 8.18124 195.836 7.71444 195.564 7.3769C195.298 7.03218 194.928 6.85982 194.454 6.85982C194.361 6.85982 194.267 6.867 194.174 6.88137C194.088 6.89573 194.016 6.91368 193.958 6.93523L193.721 6.17039C193.872 6.1273 194.012 6.09857 194.142 6.08421C194.278 6.06984 194.4 6.06266 194.508 6.06266C194.867 6.06266 195.186 6.11652 195.467 6.22425C195.754 6.32479 195.998 6.4756 196.199 6.67669C196.45 6.92087 196.634 7.22609 196.748 7.59235C196.871 7.95861 196.932 8.36438 196.932 8.80964C196.932 9.3698 196.845 9.86893 196.673 10.307C196.501 10.7379 196.285 11.0826 196.027 11.3412C195.818 11.5494 195.564 11.7146 195.262 11.8367C194.96 11.9588 194.576 12.0198 194.109 12.0198H193.571Z" fill="#43636C"/>
<path d="M232.617 12.1276C232.423 12.1276 232.237 12.0952 232.057 12.0306C231.878 11.966 231.73 11.8511 231.616 11.6859C231.501 11.5207 231.443 11.2909 231.443 10.9964V6.11652H232.402V10.8779C232.402 11.0431 232.438 11.1616 232.51 11.2334C232.581 11.3053 232.696 11.3412 232.854 11.3412C232.919 11.3412 232.987 11.334 233.059 11.3196C233.131 11.3053 233.199 11.2873 233.264 11.2658L233.393 11.966C233.257 12.0306 233.124 12.0737 232.994 12.0952C232.865 12.1168 232.739 12.1276 232.617 12.1276ZM236.012 12.1276C235.589 12.1276 235.194 12.0881 234.827 12.0091C234.468 11.9229 234.163 11.8223 233.912 11.7074L234.192 10.9318C234.343 10.9893 234.515 11.0503 234.709 11.1149C234.903 11.1796 235.111 11.2334 235.334 11.2765C235.564 11.3124 235.797 11.3304 236.034 11.3304C236.415 11.3304 236.731 11.2586 236.982 11.1149C237.233 10.9713 237.359 10.763 237.359 10.4901C237.359 10.325 237.312 10.1849 237.219 10.07C237.133 9.94793 236.996 9.83661 236.81 9.73607C236.623 9.63553 236.382 9.53857 236.088 9.44521C235.635 9.30158 235.251 9.15076 234.935 8.99277C234.626 8.82759 234.389 8.63369 234.224 8.41106C234.066 8.18124 233.987 7.89757 233.987 7.56003C233.987 7.2584 234.066 6.99268 234.224 6.76287C234.389 6.52588 234.641 6.34274 234.978 6.21348C235.323 6.07702 235.761 6.0088 236.292 6.0088C236.637 6.0088 236.96 6.04112 237.262 6.10575C237.571 6.1632 237.811 6.24579 237.984 6.35352V7.16145C237.862 7.104 237.707 7.04655 237.521 6.98909C237.341 6.93164 237.143 6.88496 236.928 6.84905C236.713 6.81314 236.49 6.79519 236.26 6.79519C235.779 6.79519 235.438 6.8706 235.237 7.02141C235.043 7.16504 234.946 7.33022 234.946 7.51694C234.946 7.67494 234.989 7.8078 235.075 7.91552C235.169 8.02325 235.323 8.12738 235.538 8.22792C235.761 8.32847 236.059 8.44337 236.433 8.57264C236.777 8.68755 237.093 8.82041 237.38 8.97122C237.668 9.12204 237.894 9.31235 238.059 9.54216C238.232 9.76479 238.318 10.0521 238.318 10.404C238.318 10.7056 238.242 10.9893 238.091 11.255C237.948 11.5135 237.707 11.7254 237.37 11.8906C237.032 12.0486 236.58 12.1276 236.012 12.1276ZM233.73 5.17932V4.75919L234.516 4.41448H238.308V5.17932H233.73ZM237.403 3.90633V2.15042H238.319V3.90633H237.403ZM242.457 12.1276C241.998 12.1276 241.599 12.0378 241.262 11.8582C240.931 11.6715 240.705 11.413 240.583 11.0826H240.54L240.486 12.0198H239.7V6.11652H240.658V9.53139C240.658 9.89047 240.719 10.2065 240.841 10.4794C240.971 10.7451 241.154 10.9534 241.391 11.1042C241.635 11.2478 241.926 11.3196 242.263 11.3196C242.687 11.3196 243.003 11.2083 243.211 10.9857C243.42 10.763 243.524 10.4363 243.524 10.0054V6.11652H244.483V10.07C244.483 10.544 244.4 10.9318 244.235 11.2334C244.077 11.5351 243.847 11.7613 243.545 11.9121C243.244 12.0557 242.881 12.1276 242.457 12.1276ZM249.074 12.1276C248.615 12.1276 248.216 12.0378 247.879 11.8582C247.548 11.6715 247.322 11.413 247.2 11.0826H247.157L247.103 12.0198H246.317V6.11652H247.275V9.53139C247.275 9.89047 247.336 10.2065 247.459 10.4794C247.588 10.7451 247.771 10.9534 248.008 11.1042C248.252 11.2478 248.543 11.3196 248.88 11.3196C249.304 11.3196 249.62 11.2083 249.828 10.9857C250.037 10.763 250.141 10.4363 250.141 10.0054V6.11652H251.1V10.07C251.1 10.544 251.017 10.9318 250.852 11.2334C250.694 11.5351 250.464 11.7613 250.162 11.9121C249.861 12.0557 249.498 12.1276 249.074 12.1276ZM246.522 5.17932V4.75919L247.308 4.41448H251.1V5.17932H246.522ZM250.206 4.75919V3.54191H251.111V4.75919H250.206ZM252.901 12.0198V7.16145C252.901 6.85264 252.962 6.61565 253.085 6.45047C253.207 6.28529 253.365 6.17039 253.559 6.10575C253.752 6.04112 253.961 6.0088 254.183 6.0088C254.262 6.0088 254.363 6.01957 254.485 6.04112C254.614 6.06266 254.726 6.09498 254.819 6.13807L254.7 6.85982C254.629 6.83828 254.557 6.82391 254.485 6.81673C254.413 6.80237 254.356 6.79519 254.313 6.79519C254.133 6.79519 254.007 6.83828 253.936 6.92446C253.871 7.01064 253.839 7.13272 253.839 7.29072V8.96045C253.839 9.18308 253.835 9.41649 253.828 9.66066C253.828 9.89766 253.817 10.1849 253.796 10.5225H253.839C253.982 10.2065 254.115 9.94434 254.237 9.73607C254.359 9.52062 254.474 9.31953 254.582 9.13281L255.153 8.16329H255.756L256.327 9.13281C256.442 9.32671 256.542 9.49907 256.629 9.64989C256.715 9.8007 256.794 9.94793 256.866 10.0916C256.937 10.228 257.006 10.3716 257.07 10.5225H257.113C257.092 10.1849 257.078 9.89766 257.07 9.66066C257.07 9.41649 257.07 9.18308 257.07 8.96045V6.11652H258.008V12.0198H257.157L255.487 9.19745H255.444L253.752 12.0198H252.901ZM263.291 12.0198V8.08788C263.291 7.62108 263.183 7.29072 262.968 7.09682C262.759 6.89573 262.407 6.79519 261.912 6.79519C261.553 6.79519 261.208 6.84546 260.878 6.946C260.555 7.03936 260.246 7.17222 259.951 7.34458V6.45047C260.16 6.34274 260.44 6.2422 260.792 6.14884C261.151 6.05548 261.553 6.0088 261.998 6.0088C262.379 6.0088 262.709 6.05189 262.989 6.13807C263.269 6.21707 263.499 6.33915 263.679 6.50433C263.865 6.66951 264.005 6.88137 264.099 7.13991C264.192 7.39126 264.239 7.6893 264.239 8.03402V12.0198H263.291ZM261.438 12.1276C260.806 12.1276 260.321 11.9839 259.984 11.6967C259.653 11.4022 259.488 10.9821 259.488 10.4363C259.488 9.8402 259.704 9.38058 260.134 9.0574C260.573 8.73423 261.28 8.54392 262.257 8.48646L263.485 8.41106V9.20822L262.386 9.28363C261.653 9.3339 261.147 9.4488 260.867 9.62834C260.594 9.80788 260.458 10.07 260.458 10.4147C260.458 10.7379 260.558 10.9749 260.759 11.1257C260.968 11.2765 261.255 11.3519 261.621 11.3519C261.743 11.3519 261.854 11.3448 261.955 11.3304C262.056 11.3088 262.152 11.2837 262.246 11.255L262.397 11.9767C262.26 12.027 262.109 12.0629 261.944 12.0845C261.786 12.1132 261.617 12.1276 261.438 12.1276Z" fill="#43636C"/>
<path d="M312.2 12.1276C311.74 12.1276 311.341 12.0378 311.004 11.8582C310.673 11.6715 310.447 11.413 310.325 11.0826H310.282L310.228 12.0198H309.442V6.11652H310.401V9.53139C310.401 9.89047 310.462 10.2065 310.584 10.4794C310.713 10.7451 310.896 10.9534 311.133 11.1042C311.377 11.2478 311.668 11.3196 312.006 11.3196C312.429 11.3196 312.745 11.2083 312.954 10.9857C313.162 10.763 313.266 10.4363 313.266 10.0054V6.11652H314.225V10.07C314.225 10.544 314.142 10.9318 313.977 11.2334C313.819 11.5351 313.589 11.7613 313.288 11.9121C312.986 12.0557 312.623 12.1276 312.2 12.1276ZM309.647 5.17932V4.75919L310.434 4.41448H314.226V5.17932H309.647ZM313.331 4.75919V3.54191H314.236V4.75919H313.331ZM316.027 12.0198V7.16145C316.027 6.85264 316.088 6.61565 316.21 6.45047C316.332 6.28529 316.49 6.17039 316.684 6.10575C316.878 6.04112 317.086 6.0088 317.308 6.0088C317.387 6.0088 317.488 6.01957 317.61 6.04112C317.739 6.06266 317.851 6.09498 317.944 6.13807L317.826 6.85982C317.754 6.83828 317.682 6.82391 317.61 6.81673C317.538 6.80237 317.481 6.79519 317.438 6.79519C317.258 6.79519 317.133 6.83828 317.061 6.92446C316.996 7.01064 316.964 7.13272 316.964 7.29072V8.96045C316.964 9.18308 316.96 9.41649 316.953 9.66066C316.953 9.89766 316.942 10.1849 316.921 10.5225H316.964C317.107 10.2065 317.24 9.94434 317.362 9.73607C317.484 9.52062 317.599 9.31953 317.707 9.13281L318.278 8.16329H318.881L319.452 9.13281C319.567 9.32671 319.668 9.49907 319.754 9.64989C319.84 9.8007 319.919 9.94793 319.991 10.0916C320.063 10.228 320.131 10.3716 320.196 10.5225H320.239C320.217 10.1849 320.203 9.89766 320.196 9.66066C320.196 9.41649 320.196 9.18308 320.196 8.96045V6.11652H321.133V12.0198H320.282L318.612 9.19745H318.569L316.878 12.0198H316.027ZM326.416 12.0198V8.08788C326.416 7.62108 326.308 7.29072 326.093 7.09682C325.884 6.89573 325.533 6.79519 325.037 6.79519C324.678 6.79519 324.333 6.84546 324.003 6.946C323.68 7.03936 323.371 7.17222 323.076 7.34458V6.45047C323.285 6.34274 323.565 6.2422 323.917 6.14884C324.276 6.05548 324.678 6.0088 325.123 6.0088C325.504 6.0088 325.834 6.05189 326.114 6.13807C326.394 6.21707 326.624 6.33915 326.804 6.50433C326.99 6.66951 327.13 6.88137 327.224 7.13991C327.317 7.39126 327.364 7.6893 327.364 8.03402V12.0198H326.416ZM324.563 12.1276C323.931 12.1276 323.446 11.9839 323.109 11.6967C322.778 11.4022 322.613 10.9821 322.613 10.4363C322.613 9.8402 322.829 9.38058 323.26 9.0574C323.698 8.73423 324.405 8.54392 325.382 8.48646L326.61 8.41106V9.20822L325.511 9.28363C324.779 9.3339 324.272 9.4488 323.992 9.62834C323.719 9.80788 323.583 10.07 323.583 10.4147C323.583 10.7379 323.683 10.9749 323.884 11.1257C324.093 11.2765 324.38 11.3519 324.746 11.3519C324.868 11.3519 324.98 11.3448 325.08 11.3304C325.181 11.3088 325.278 11.2837 325.371 11.255L325.522 11.9767C325.385 12.027 325.235 12.0629 325.069 12.0845C324.911 12.1132 324.743 12.1276 324.563 12.1276Z" fill="#43636C"/>
</svg>
