<svg width="54" height="54" viewBox="0 0 54 54" fill="none" xmlns="http://www.w3.org/2000/svg">
<path d="M7.53879 7.33055C9.56596 6.08416 11.6836 5.07917 13.8532 4.17691C14.9355 3.71465 16.0378 3.31745 17.1503 2.92196C18.2627 2.53332 19.3919 2.19433 20.5311 1.86219C21.672 1.54374 22.8297 1.26981 23.9991 1.00957C24.5855 0.879453 25.1752 0.775018 25.7699 0.672294C26.0665 0.619219 26.3664 0.574704 26.6646 0.526766C26.9628 0.478828 27.2644 0.434314 27.5659 0.393225C28.7722 0.216881 29.9952 0.112444 31.2416 0.0508095C32.4881 -0.00740102 33.758 -0.0296571 35.0497 0.0610829C36.3431 0.14155 37.6616 0.2905 39.0136 0.547312C39.3537 0.615795 39.6921 0.69455 40.0305 0.771593L41.0575 1.04724C41.4009 1.14825 41.7477 1.26467 42.0929 1.37596C42.4397 1.49238 42.7881 1.63448 43.1333 1.76802C44.5204 2.33643 45.9328 3.07947 47.268 4.08788C47.5997 4.34641 47.9281 4.6152 48.2531 4.88571C48.5698 5.17847 48.8898 5.46953 49.1947 5.77941C49.4912 6.10299 49.7911 6.42315 50.0725 6.76557C50.344 7.11654 50.6271 7.46067 50.8767 7.83048C51.9037 9.2943 52.6593 10.9482 53.1602 12.5935C53.2741 13.0027 53.3964 13.4187 53.4903 13.8296C53.574 14.2388 53.6528 14.648 53.7282 15.0589C53.7868 15.4629 53.8354 15.8635 53.884 16.2676C53.9124 16.4713 53.9242 16.6665 53.9359 16.8634L53.9728 17.4541C53.9828 17.6492 53.9996 17.8513 53.9996 18.043V18.6183C53.9929 19.0001 53.9996 19.3921 53.9728 19.7585L53.9024 20.8748C53.8672 21.2309 53.827 21.5767 53.7868 21.9294L53.7181 22.4739L53.6612 22.8283L53.6343 22.9909L53.6075 23.1347C53.5372 23.5268 53.4601 23.8743 53.383 24.2339C53.2222 24.929 53.0513 25.6052 52.857 26.2644C52.4683 27.5827 52.0143 28.853 51.5033 30.096L51.1096 31.0222L50.6857 31.9331C50.545 32.2378 50.4026 32.5391 50.2468 32.8353C50.096 33.1332 49.9402 33.4294 49.7844 33.7239C48.5229 36.0763 47.0234 38.2934 45.3213 40.3257L44.0078 41.8152C43.5521 42.2928 43.0796 42.7568 42.6172 43.2242C42.3894 43.4622 42.1414 43.6796 41.8985 43.9005L41.163 44.5562C40.6805 45.0013 40.1578 45.3985 39.6485 45.806L38.8779 46.4087C38.6165 46.6021 38.3451 46.7819 38.0787 46.9685L37.2779 47.5215L36.8775 47.7954C36.7451 47.8879 36.6011 47.9632 36.4637 48.0471L34.7984 49.0281C34.661 49.112 34.5186 49.1856 34.3762 49.2576L33.949 49.4767L33.0962 49.9133C32.8114 50.0571 32.53 50.206 32.2435 50.343C31.9536 50.4714 31.6588 50.5895 31.3673 50.7128L30.4911 51.0775L30.0538 51.259C29.9097 51.3206 29.7623 51.3788 29.6132 51.4285C28.4237 51.8342 27.2576 52.2862 26.0447 52.5619C25.4432 52.7142 24.8485 52.882 24.2487 53.0173C23.6456 53.1388 23.0441 53.2604 22.441 53.3631L21.5397 53.5223C21.2381 53.5651 20.9349 53.5977 20.6333 53.6336C20.0302 53.7021 19.4321 53.7826 18.8306 53.8374L18.38 53.8802L17.9276 53.9007L17.0263 53.9384C16.4265 53.9623 15.8318 53.9932 15.2353 54L13.4477 53.9452C12.8547 53.9264 12.2633 53.9007 11.6752 53.8545C10.4958 53.7363 9.32471 53.5994 8.16537 53.4299C7.00436 53.2056 5.85507 52.983 4.7175 52.6954L4.7041 51.9986L8.05983 51.8034C9.17393 51.699 10.2864 51.5654 11.3988 51.449C12.5045 51.2847 13.6086 51.0963 14.711 50.9166L16.3478 50.5587L17.1653 50.3807L17.5741 50.2916L17.9779 50.1804L19.5929 49.7386C19.861 49.6633 20.1324 49.5948 20.3988 49.5161L21.1929 49.2507L22.7794 48.72C23.3038 48.5282 23.8165 48.3091 24.3342 48.1053C25.3813 47.7184 26.3714 47.2014 27.3833 46.734C27.5106 46.6775 27.6346 46.6124 27.7552 46.5439L28.1221 46.3436L28.8559 45.9413L29.5897 45.5406C29.8293 45.3985 30.0622 45.2462 30.3001 45.0989L31.0088 44.6538L31.3623 44.4312C31.4812 44.3576 31.5985 44.284 31.7107 44.2001L33.0728 43.2293C33.304 43.0735 33.5184 42.8955 33.7379 42.7209L34.393 42.1987C34.6091 42.0223 34.8319 41.8545 35.0447 41.6731L35.6696 41.1149C37.3382 39.6323 38.8779 37.9972 40.2466 36.2218C42.9808 32.6727 45.0649 28.5911 46.3348 24.2767C46.6448 23.1998 46.9329 22.104 47.0619 21.022L47.1675 20.1882L47.2295 19.3562C47.258 19.0788 47.2513 18.8015 47.2596 18.5241L47.268 18.1081C47.2714 17.9694 47.2596 17.8324 47.2546 17.6937C47.2094 15.4886 46.6532 13.3091 45.4821 11.5097C44.8991 10.6109 44.1736 9.80792 43.3393 9.13165C42.5067 8.45196 41.5752 7.88869 40.5918 7.42472C38.6215 6.49848 36.4654 5.95576 34.2824 5.6219C32.0944 5.29147 29.8662 5.17676 27.638 5.19731C25.4081 5.21443 23.1765 5.36851 20.9516 5.60992C18.7251 5.84105 16.5053 6.16463 14.2972 6.56354C12.0924 6.96417 9.88596 7.42985 7.72476 7.99997L7.53879 7.33055Z" fill="url(#paint0_linear_4144_3073)"/>
<path d="M9.29569 9.4865C9.57225 9.4146 9.83037 9.31019 10.0734 9.17839C10.3164 9.04488 10.5293 8.96614 10.712 8.93875C10.7154 8.93875 10.717 8.93875 10.7204 8.93875C11.0791 8.8874 11.3757 9.24686 11.2986 9.62172L4.72995 41.6048C4.75509 41.6014 4.32433 42.892 6.1161 42.7311C6.86197 42.6643 7.87099 42.4589 8.75263 42.2244C9.63427 41.9899 10.7623 41.7281 12.135 41.4388C13.4156 41.1683 15.0012 40.8927 16.8902 40.612C17.1299 40.5761 17.3645 40.7216 17.4567 40.9612C17.6997 41.5945 17.5657 41.0827 17.7081 41.5295C17.8489 41.9694 17.978 42.5668 18.0953 43.3182C18.1339 43.5698 18.0098 43.8197 17.7903 43.919C17.3109 44.1398 16.7594 44.3624 16.1376 44.5883C15.3498 44.8742 14.3509 45.1874 13.1407 45.5263C11.9305 45.8652 10.821 46.1408 9.81026 46.3531C8.79956 46.5653 7.814 46.7416 6.85024 46.882C4.60759 47.2089 2.74542 47.3185 1.26541 47.2089C1.07769 47.1952 0.9084 47.0771 0.821242 46.8974C0.598319 46.4335 0.388805 46.1083 0.189347 45.9251C0.0586097 45.8036 -0.0117877 45.629 0.00162128 45.4459C0.0669898 44.5969 0.373719 42.4127 0.921809 38.8918C1.57382 34.6981 2.38171 30.2614 3.34715 25.5816C4.31092 20.9018 5.36017 16.78 6.49155 13.2163C6.64072 12.7712 6.77984 12.3365 6.90722 11.912C7.01785 11.5457 7.14523 11.1143 7.29441 10.6196C7.33798 10.4724 7.4352 10.3492 7.56426 10.2824C7.69667 10.214 7.83076 10.1404 7.96485 10.0616C8.16599 9.94352 8.38723 9.83397 8.6286 9.73298C8.86996 9.6337 9.0912 9.55154 9.29569 9.48992V9.4865Z" fill="url(#paint1_linear_4144_3073)"/>
<path d="M31.4512 16.0587L31.5788 16.1615C31.6207 16.117 31.698 16.0535 31.8104 15.9747C31.9229 15.8959 32.0572 15.8376 32.2133 15.8016C32.5775 15.769 32.9367 16.0295 33.2892 16.5797C33.6417 17.1298 33.8952 17.7502 34.0479 18.4391C34.1503 18.9019 34.1822 19.3046 34.1436 19.6508C34.1033 19.997 33.9858 20.2318 33.7877 20.3569C33.5578 20.41 33.2892 20.3757 32.9854 20.2524C32.6799 20.129 32.3828 19.8873 32.0891 19.5257C31.797 19.1658 31.5637 18.7134 31.3908 18.1701C31.2548 18.3792 31.1038 18.6105 30.9359 18.8659C30.7681 19.1212 30.5817 19.464 30.3786 19.8907C30.1755 20.3175 30.006 20.7545 29.8717 21.2018C29.7374 21.6491 29.6199 22.2249 29.5159 22.9293L32.0236 22.1204L32.5708 22.5368L33.1096 22.7956L33.2154 23.5C33.1902 23.5051 31.7886 24.1855 29.0073 25.5394C29.0324 25.5343 28.5037 27.7999 27.421 32.3398C27.2952 32.9002 27.1441 33.5669 26.9712 34.3415C26.7983 35.1161 26.6422 35.8034 26.5029 36.4066C26.3652 37.0082 26.2629 37.4589 26.2007 37.7571C25.9909 37.788 25.813 37.764 25.6653 37.6834C25.5176 37.6029 25.3665 37.4863 25.2104 37.3321C25.0543 37.1778 24.9418 37.0836 24.873 37.0459C24.8327 37.0202 24.6045 36.9739 24.1865 36.9071C23.7685 36.8402 23.5336 36.7477 23.4815 36.6277C23.6091 36.0759 23.7367 35.5275 23.8609 34.9808C23.9851 34.4341 24.1126 33.8856 24.2402 33.3338L24.1529 33.6988C24.1479 33.7537 24.1445 33.7845 24.1412 33.7948C24.1395 33.8051 24.1345 33.8137 24.1278 33.8239C24.168 33.8137 24.4131 32.9413 24.8613 31.207C25.3094 29.4709 25.6821 28.0262 25.9775 26.8693C25.7996 26.9276 25.4924 27.1213 25.0543 27.4486C24.6162 27.7759 24.257 27.9713 23.9784 28.0364C23.6427 27.6988 23.4513 27.4212 23.4026 27.2018C23.3539 27.063 23.2566 26.9773 23.1122 26.9447C22.9662 26.9122 22.8336 26.871 22.7144 26.8179C22.5953 26.7665 22.5063 26.6328 22.4492 26.4152C23.3707 25.7331 24.1966 25.2018 24.9251 24.8248C25.6552 24.4477 26.1823 24.1907 26.5062 24.0518C26.6338 23.147 26.9091 22.0638 27.3338 20.8025C27.7584 19.5411 28.2553 18.4272 28.8277 17.4571C29.4 16.4888 29.9607 15.9404 30.5129 15.8119C30.8503 15.7331 31.1625 15.8153 31.4512 16.0587Z" fill="url(#paint2_linear_4144_3073)"/>
<path d="M31.2212 34.8011C30.8299 34.4057 30.551 33.8391 30.3864 33.1013C30.1731 32.1445 30.1664 31.0524 30.3696 29.8268C30.5729 28.6012 30.976 27.3961 31.5824 26.2133C32.1887 25.0305 33.0101 23.9863 34.0465 23.0791C35.0829 22.1719 36.2889 21.5591 37.6646 21.239C38.4591 21.1072 39.1511 21.2595 39.7424 21.696C40.3336 22.1325 40.7132 22.723 40.8795 23.4694C41.0105 24.0565 40.982 24.6488 40.7955 25.2479C40.468 26.1876 39.8045 27.0743 38.8034 27.9062C38.1601 28.5139 37.2833 29.1472 36.173 29.8062C35.0644 30.4653 34.0045 30.9428 32.9967 31.239C32.9698 31.8175 32.9748 32.1873 33.0101 32.3465C33.1042 32.7658 33.4015 33.0312 33.9037 33.1441C34.1204 33.1818 34.4177 33.1578 34.7973 33.0688C35.654 32.8703 36.5089 32.4081 37.3605 31.6823C38.2122 30.9565 38.7866 30.0767 39.0839 29.0411C39.1713 29.0822 39.2687 29.3424 39.3745 29.8216C39.4014 29.8679 39.5274 29.9517 39.7491 30.0733C39.9708 30.1931 40.0901 30.2872 40.1052 30.3557C40.0665 31.1157 39.781 31.8638 39.2485 32.6015C38.7161 33.3393 38.0291 33.988 37.1892 34.5495C36.3477 35.1109 35.5078 35.4892 34.668 35.6844C33.1025 36.0473 31.9536 35.7528 31.2212 34.8028V34.8011ZM40.1102 23.9264C39.8969 23.7467 39.5593 23.7107 39.0974 23.8169C38.7933 23.887 38.454 24.0377 38.0795 24.2653C37.295 24.7908 36.6517 25.378 36.1461 26.025C35.6405 26.672 35.2223 27.4714 34.888 28.4232C35.1484 28.3102 35.6691 28.05 36.4485 27.6443C37.2278 27.2386 37.7956 26.9322 38.1483 26.7268C38.8857 26.2287 39.4451 25.7563 39.8263 25.3112C40.2076 24.8644 40.3655 24.4998 40.3017 24.214C40.2832 24.1301 40.2177 24.0342 40.1085 23.9281L40.1102 23.9264Z" fill="url(#paint3_linear_4144_3073)"/>
<path fill-rule="evenodd" clip-rule="evenodd" d="M17.6204 22.5088C18.5423 22.5088 19.2546 21.7588 19.2111 20.834C19.1675 19.9093 18.3864 19.1609 17.4645 19.1609C16.5426 19.1609 15.8319 19.911 15.8738 20.8357C15.9174 21.7605 16.6985 22.5088 17.6204 22.5088Z" fill="url(#paint4_linear_4144_3073)"/>
<path fill-rule="evenodd" clip-rule="evenodd" d="M19.8595 24.8206C22.2413 24.2744 24.8712 22.7742 26.6328 21.012C20.8803 23.5054 14.645 24.1545 8.34766 20.9778L15.3909 25.7522V25.7557C15.3909 25.7557 15.3942 25.7557 15.3959 25.7608C16.1502 30.4685 15.7026 36.3081 15.178 39.3889C16.3714 35.8766 17.4861 33.1828 17.9185 31.4994C18.5186 33.8113 19.3734 36.4896 19.7254 39.6012C20.1025 37.1763 19.9148 32.6553 19.8494 28.7834H19.8478L19.8377 27.5743C19.836 26.5588 19.8411 25.3549 19.8629 24.8206H19.8595Z" fill="url(#paint5_linear_4144_3073)"/>
<path d="M20.9508 24.9782C20.9508 24.9628 20.9508 24.9474 20.9491 24.932C20.9072 24.3172 20.3642 23.8223 19.739 23.8668C19.2814 23.8993 18.9093 24.2281 18.7551 24.6237C18.5506 24.2538 18.1366 23.9798 17.679 24.0124C17.0538 24.0569 16.5828 24.6254 16.6247 25.2385C16.6247 25.2539 16.628 25.2693 16.6297 25.2848C16.6297 25.2848 16.6146 26.0194 17.4644 26.7592C17.8516 27.1034 18.279 27.4254 18.9813 27.9306C19.6082 27.3312 19.9887 26.951 20.3256 26.5554C21.0665 25.7026 20.9525 24.9782 20.9525 24.9782H20.9508Z" fill="#FF0000"/>
<path d="M36.1648 12.0556C36.215 11.4168 36.3307 9.94233 36.3927 9.13574L36.9207 9.18883C36.8537 9.99884 36.7313 11.4904 36.6793 12.1258L36.1631 12.0538L36.1648 12.0556Z" fill="url(#paint6_linear_4144_3073)"/>
<path d="M36.3962 9.10669L36.9242 9.15978C36.9393 9.15978 36.9511 9.17519 36.9494 9.19061L36.708 12.1275C36.708 12.1275 36.703 12.143 36.698 12.1481C36.6912 12.1532 36.6845 12.1549 36.6762 12.1549L36.1599 12.083C36.1448 12.0813 36.1348 12.0676 36.1348 12.0522L36.3627 9.13238C36.3627 9.13238 36.3678 9.11697 36.3728 9.11183C36.3761 9.10841 36.3812 9.10669 36.3862 9.10498C36.3879 9.10498 36.3912 9.10498 36.3929 9.10498L36.3962 9.10669ZM36.6544 12.0933L36.8907 9.21629L36.418 9.16834L36.1951 12.0299L36.6544 12.0933Z" fill="#007B9C"/>
<path d="M35.6484 11.9837C35.6954 11.3416 35.8043 9.88421 35.8647 9.08276L36.3927 9.13585C36.329 9.94073 36.215 11.4169 36.1647 12.0557L35.6484 11.9837Z" fill="url(#paint7_linear_4144_3073)"/>
<path d="M35.8682 9.05371L36.3962 9.1068C36.4113 9.1068 36.423 9.12221 36.4213 9.13762L36.1934 12.0574C36.1934 12.0574 36.1883 12.0729 36.1833 12.078C36.1766 12.0831 36.1699 12.0848 36.1615 12.0848L35.6453 12.0129C35.6302 12.0112 35.6201 11.9975 35.6201 11.9821L35.8363 9.08111C35.8363 9.08111 35.8414 9.0657 35.8464 9.06056C35.8498 9.05714 35.8548 9.05542 35.8598 9.05371C35.8615 9.05371 35.8648 9.05371 35.8665 9.05371H35.8682ZM36.1397 12.0232L36.3627 9.16331L35.89 9.11536L35.6788 11.9598L36.138 12.0232H36.1397Z" fill="#007B9C"/>
<path d="M35.1345 11.9117C35.1797 11.2678 35.2803 9.82586 35.3373 9.02783L35.8653 9.08092C35.805 9.88237 35.6977 11.3414 35.6491 11.9819L35.1328 11.91L35.1345 11.9117Z" fill="url(#paint8_linear_4144_3073)"/>
<path d="M35.3389 9.00049L35.8669 9.05358C35.882 9.05358 35.8937 9.06899 35.892 9.0844L35.6758 11.9854C35.6758 11.9854 35.6708 12.0008 35.6657 12.0059C35.659 12.0111 35.6523 12.0128 35.6439 12.0128L35.1277 11.9409C35.1126 11.9391 35.1025 11.9254 35.1025 11.91C35.1444 11.3192 35.2333 10.0554 35.2903 9.23339L35.3054 9.02618C35.3054 9.02618 35.3087 9.01077 35.3154 9.00563C35.3188 9.0022 35.3238 9.00049 35.3288 8.99878C35.3305 8.99878 35.3339 8.99878 35.3355 8.99878L35.3389 9.00049ZM35.6238 11.9511L35.835 9.10838L35.364 9.06043L35.3506 9.23853C35.2936 10.0468 35.2065 11.285 35.1646 11.8878L35.6238 11.9511Z" fill="#007B9C"/>
<path d="M34.6182 11.8416C34.6617 11.1943 34.7556 9.76945 34.8092 8.97485L35.3372 9.02794C35.2819 9.82597 35.1797 11.2679 35.1344 11.9118L34.6182 11.8399V11.8416Z" fill="url(#paint9_linear_4144_3073)"/>
<path d="M34.8108 8.9458L35.3388 8.99889C35.3539 8.99889 35.3656 9.0143 35.364 9.02972L35.3489 9.23864C35.2919 10.0589 35.203 11.3228 35.1611 11.9136C35.1611 11.9221 35.1561 11.929 35.1511 11.9341C35.1444 11.9393 35.1377 11.941 35.1293 11.941L34.613 11.869C34.598 11.8673 34.5879 11.8536 34.5879 11.8382C34.6315 11.1909 34.7253 9.76609 34.779 8.97149C34.779 8.96293 34.7823 8.95608 34.789 8.95094C34.7924 8.94752 34.7974 8.9458 34.8024 8.94409C34.8041 8.94409 34.8075 8.94409 34.8091 8.94409L34.8108 8.9458ZM35.1075 11.8793C35.1494 11.2765 35.2366 10.0418 35.2936 9.23522L35.307 9.05369L34.836 9.00574C34.784 9.79349 34.6918 11.1652 34.6499 11.816L35.1092 11.8793H35.1075Z" fill="#007B9C"/>
<path d="M34.1013 11.7695C34.1415 11.1205 34.2304 9.71109 34.279 8.92163L34.8069 8.97472C34.755 9.76761 34.6594 11.1941 34.6159 11.8414L34.0996 11.7695H34.1013Z" fill="url(#paint10_linear_4144_3073)"/>
<path d="M34.2825 8.89258L34.8105 8.94567C34.8256 8.94567 34.8373 8.96108 34.8356 8.97649C34.782 9.7711 34.6881 11.1959 34.6445 11.8432C34.6445 11.8518 34.6395 11.8586 34.6345 11.8638C34.6278 11.8689 34.6211 11.8706 34.6127 11.8706L34.0964 11.7987C34.0813 11.797 34.0713 11.7833 34.0713 11.7679L34.249 8.91827C34.249 8.91827 34.2523 8.90286 34.259 8.89772C34.2624 8.89429 34.2674 8.89258 34.2724 8.89087C34.2741 8.89087 34.2775 8.89087 34.2791 8.89087L34.2825 8.89258ZM34.5909 11.809C34.6345 11.1565 34.725 9.78822 34.7769 9.00218L34.3059 8.95423L34.1316 11.7456L34.5909 11.809Z" fill="#007B9C"/>
<path d="M33.6943 11.7131L33.8016 8.87207L34.2793 8.92002C34.2307 9.70948 34.1419 11.1189 34.1016 11.7679L33.6943 11.7114V11.7131Z" fill="url(#paint11_linear_4144_3073)"/>
<path d="M33.8051 8.84302L34.2828 8.89097C34.2979 8.89097 34.3097 8.90638 34.308 8.92179L34.1303 11.7714C34.1303 11.7714 34.1253 11.7868 34.1203 11.7919C34.1136 11.7971 34.1068 11.7988 34.0985 11.7988L33.6912 11.7423C33.6761 11.7406 33.666 11.7269 33.666 11.7132L33.7733 8.87213C33.7733 8.87213 33.7766 8.85672 33.7833 8.85158C33.7867 8.84815 33.7917 8.84644 33.7984 8.84473C33.8001 8.84473 33.8035 8.84473 33.8051 8.84473V8.84302ZM34.0767 11.7371L34.251 8.94748L33.8303 8.90467L33.7247 11.6892L34.0767 11.7371Z" fill="#007B9C"/>
<path d="M37.196 12.1977C37.2496 11.5658 37.3804 10.0571 37.4491 9.24365L37.9771 9.29674C37.9033 10.1136 37.7659 11.6412 37.7106 12.2679L37.1943 12.196L37.196 12.1977Z" fill="url(#paint12_linear_4144_3073)"/>
<path d="M37.4539 9.21461L37.9819 9.26769C37.997 9.26769 38.0087 9.28311 38.007 9.29852L37.7405 12.2697C37.7405 12.2697 37.7355 12.2851 37.7305 12.2903C37.7237 12.2954 37.717 12.2971 37.7087 12.2954L37.1941 12.2235C37.179 12.2218 37.1689 12.2081 37.1689 12.1926L37.422 9.23858C37.422 9.23858 37.4271 9.22317 37.4321 9.21803C37.4355 9.21461 37.4405 9.21289 37.4455 9.21118C37.4472 9.21118 37.4505 9.21118 37.4522 9.21118L37.4539 9.21461ZM37.6869 12.2355L37.9484 9.32249L37.4757 9.27454L37.2276 12.1721L37.6869 12.2355Z" fill="#007B9C"/>
<path d="M36.6816 12.1259C36.7336 11.4906 36.856 9.99898 36.923 9.18896L37.451 9.24205C37.3806 10.0555 37.2515 11.5642 37.1979 12.1961L36.6816 12.1242V12.1259Z" fill="url(#paint13_linear_4144_3073)"/>
<path d="M36.9246 9.16162L37.4526 9.21471C37.4677 9.21471 37.4794 9.23012 37.4777 9.24554L37.2246 12.1996C37.2246 12.1996 37.2196 12.215 37.2146 12.2202C37.2079 12.2253 37.2011 12.227 37.1928 12.227L36.6765 12.1551C36.6614 12.1534 36.6514 12.1397 36.6514 12.1243L36.8927 9.18731C36.8927 9.18731 36.8978 9.1719 36.9028 9.16676C36.9061 9.16334 36.9112 9.16162 36.9162 9.15991C36.9179 9.15991 36.9212 9.15991 36.9229 9.15991L36.9246 9.16162ZM37.171 12.1654L37.419 9.26951L36.9464 9.22156L36.71 12.102L37.1693 12.1654H37.171Z" fill="#007B9C"/>
<path d="M40.1043 9.51427L39.7858 12.5557L39.2578 12.4838L39.5645 9.45947L40.1043 9.51427Z" fill="url(#paint14_linear_4144_3073)"/>
<path d="M39.5681 9.43042L40.1078 9.48522C40.1078 9.48522 40.1229 9.49036 40.1262 9.4955C40.1313 9.50235 40.1329 9.5092 40.1329 9.51605L39.8145 12.5592C39.8145 12.5592 39.8094 12.5746 39.8044 12.5797C39.7977 12.5848 39.791 12.5866 39.7826 12.5848L39.2546 12.5112C39.2395 12.5095 39.2295 12.4958 39.2295 12.4804L39.5362 9.45611C39.5362 9.44241 39.548 9.43213 39.5597 9.43042C39.5614 9.43042 39.5647 9.43042 39.5664 9.43042H39.5681ZM39.7608 12.5232L40.0726 9.54002L39.5899 9.49036L39.2898 12.4581L39.7608 12.5232Z" fill="#007B9C"/>
<path d="M39.2577 12.4836L38.7432 12.4117C38.8035 11.7935 38.956 10.23 39.0365 9.40454L39.5645 9.45763L39.2577 12.4819V12.4836Z" fill="url(#paint15_linear_4144_3073)"/>
<path d="M39.04 9.37549L39.568 9.42858C39.568 9.42858 39.5831 9.43372 39.5864 9.43885C39.5915 9.4457 39.5931 9.45255 39.5931 9.4594L39.2864 12.4837C39.2864 12.4837 39.2814 12.4991 39.2764 12.5042C39.2696 12.5094 39.2629 12.5111 39.2546 12.5094L38.74 12.4374C38.7249 12.4357 38.7148 12.422 38.7148 12.4066L39.0082 9.39947C39.0082 9.38577 39.0199 9.37549 39.0316 9.37378C39.0333 9.37378 39.0367 9.37378 39.0383 9.37378L39.04 9.37549ZM39.2344 12.4494L39.5345 9.48338L39.0618 9.43543L38.7735 12.3861L39.2328 12.4494H39.2344Z" fill="#007B9C"/>
<path d="M37.7116 12.2698C37.7686 11.643 37.9044 10.1154 37.9781 9.29858L38.5061 9.35167C38.429 10.1737 38.2849 11.7183 38.2262 12.3417L37.71 12.2698H37.7116Z" fill="url(#paint16_linear_4144_3073)"/>
<path d="M37.9819 9.26953L38.5099 9.32262C38.525 9.32262 38.5368 9.33803 38.5351 9.35344L38.2552 12.3435C38.2552 12.3435 38.2501 12.3589 38.2451 12.364C38.2384 12.3692 38.2317 12.3709 38.2233 12.3709L37.7087 12.2989C37.6937 12.2972 37.6836 12.2835 37.6836 12.2681L37.9501 9.29693C37.9501 9.29693 37.9551 9.28152 37.9602 9.27809C37.9635 9.27467 37.9685 9.27296 37.9736 9.27124C37.9752 9.27124 37.9786 9.27124 37.9803 9.27124L37.9819 9.26953ZM38.2015 12.3092L38.4764 9.37913L38.0037 9.33118L37.7423 12.2459L38.2015 12.3092Z" fill="#007B9C"/>
<path d="M38.2266 12.3416C38.2852 11.7182 38.4294 10.1736 38.5065 9.35156L39.0345 9.40465C38.954 10.2301 38.8015 11.7936 38.7411 12.4118L38.2266 12.3399V12.3416Z" fill="url(#paint17_linear_4144_3073)"/>
<path d="M38.5097 9.32251L39.0377 9.3756C39.0377 9.3756 39.0528 9.38074 39.0562 9.38588C39.0612 9.39101 39.0629 9.39958 39.0629 9.40643L38.7695 12.4136C38.7695 12.4136 38.7645 12.429 38.7595 12.4341C38.7528 12.4393 38.7461 12.441 38.7377 12.4393L38.2214 12.3673C38.2064 12.3656 38.1963 12.3519 38.1963 12.3365L38.4762 9.34649C38.4762 9.34649 38.4812 9.33108 38.4863 9.32765C38.4896 9.32423 38.4946 9.32251 38.4997 9.3208C38.5013 9.3208 38.5047 9.3208 38.5064 9.3208L38.5097 9.32251ZM38.7176 12.3793L39.0059 9.4304L38.5332 9.38245L38.2583 12.3143L38.7176 12.3776V12.3793Z" fill="#007B9C"/>
<g style="mix-blend-mode:multiply">
<path d="M33.7754 9.5878L33.7787 9.51587L40.0342 10.1923L40.0258 10.2625L33.7754 9.5878Z" fill="#71C0EB"/>
<path d="M39.9378 11.093L33.7461 10.3344L33.7494 10.2625L39.9462 11.0228L39.9378 11.093Z" fill="#71C0EB"/>
<path d="M39.8476 11.9631L33.7129 11.2096L33.7162 11.1377L39.856 11.8912L39.8476 11.9631Z" fill="#71C0EB"/>
</g>
<g style="mix-blend-mode:multiply" opacity="0.3">
<path d="M39.7856 12.5557L40.1041 9.51426L33.8018 8.87207L39.7856 12.5557Z" fill="#008BB8"/>
</g>
<path d="M48.2056 8.53139C48.1989 8.54338 47.567 9.56061 47.567 9.56061L46.7239 9.44073L45.6025 7.17509C45.6025 7.17509 46.7826 6.76238 46.7909 6.75553H46.7943L46.9233 6.72642C47.2234 6.6836 47.5603 6.78635 47.9324 7.23503C48.3263 7.70768 48.385 8.21116 48.2039 8.53139H48.2056Z" fill="url(#paint18_linear_4144_3073)"/>
<path d="M48.2056 8.53139C48.1989 8.54338 47.567 9.56061 47.567 9.56061L46.7239 9.44073L45.6025 7.17509C45.6025 7.17509 46.7826 6.76238 46.7909 6.75553H46.7943L46.9233 6.72642C47.2234 6.6836 47.5603 6.78635 47.9324 7.23503C48.3263 7.70768 48.385 8.21116 48.2039 8.53139H48.2056Z" fill="#737679"/>
<g style="mix-blend-mode:multiply" opacity="0.5">
<path d="M47.2411 7.2694C47.6535 7.68382 47.987 8.16503 48.0775 8.74043C47.8915 9.04183 47.568 9.56244 47.568 9.56244L46.7249 9.44256L45.6035 7.17692C45.6035 7.17692 46.1567 6.98341 46.5086 6.86011C46.7534 6.94745 47.0601 7.08616 47.2428 7.27111L47.2411 7.2694Z" fill="#737679"/>
</g>
<g style="mix-blend-mode:multiply">
<path d="M47.7977 8.56558C47.9535 8.33953 48.1178 8.12204 48.2737 7.89771C48.3273 8.14088 48.3005 8.36351 48.205 8.53304C48.1983 8.54503 47.5664 9.56226 47.5664 9.56226L47.1523 9.50403C47.3702 9.19407 47.5814 8.87897 47.796 8.56729L47.7977 8.56558Z" fill="#B0C7D2"/>
</g>
<g style="mix-blend-mode:multiply">
<path d="M45.8204 7.61518L45.6025 7.17678C45.6025 7.17678 46.7826 6.76407 46.7909 6.75722H46.7943L46.9233 6.72811C47.0641 6.70756 47.2116 6.72126 47.3675 6.78462C46.8362 7.02951 46.33 7.3292 45.8188 7.61518H45.8204Z" fill="#B0C7D2"/>
</g>
<path d="M47.7059 10.0641C47.6925 10.0863 46.5611 11.9102 46.5611 11.9102L45.0492 11.6944L43.0361 7.63233C43.0361 7.63233 45.1514 6.89253 45.1699 6.88054L45.1766 6.8754L45.4079 6.82745C45.9476 6.75039 46.5494 6.93705 47.2181 7.7385C47.9255 8.5879 48.0294 9.49039 47.7059 10.0641Z" fill="#648199"/>
<g style="mix-blend-mode:multiply">
<path d="M45.7195 10.5025C46.0162 10.1343 46.3129 9.7661 46.6045 9.3962C46.9163 9.00232 47.2515 8.62728 47.5566 8.22827C47.9471 8.92012 47.9656 9.59999 47.7041 10.0641C47.6907 10.0863 46.5593 11.9102 46.5593 11.9102L45.0474 11.6944L44.9619 11.5214C45.1731 11.1515 45.4514 10.833 45.7179 10.5025H45.7195Z" fill="#CFD1D2"/>
</g>
<g style="mix-blend-mode:screen" opacity="0.5">
<path d="M45.5821 8.68892C45.2335 8.92182 45.0156 9.10506 44.6619 9.32768C44.4608 9.45441 44.258 9.57771 44.0769 9.72841L43.792 9.15472C44.8547 8.58103 45.9341 8.03988 47.0253 7.52271C47.0588 7.55867 47.0923 7.59463 47.1275 7.63231C46.6515 7.96111 46.0649 8.36697 45.5838 8.68892H45.5821Z" fill="white"/>
</g>
<g style="mix-blend-mode:multiply">
<path d="M43.7418 7.71795C43.5457 7.80015 43.0361 7.63233 43.0361 7.63233C43.0361 7.63233 45.1514 6.89253 45.1699 6.88054L45.1766 6.8754L45.4079 6.82745C45.5705 6.80519 45.7381 6.80519 45.9107 6.83944C45.5403 7.00213 44.0737 7.57924 43.7435 7.71795H43.7418Z" fill="#CFD1D2"/>
</g>
<path d="M46.3989 12.0985C46.3704 12.1225 46.3419 12.1448 46.3118 12.1653L42.708 14.7221L42.7315 14.4703L39.0322 10.4768L42.8287 7.75734C42.8522 7.7385 42.8757 7.72137 42.9008 7.70596L42.9092 7.69911C43.593 7.27099 44.8384 7.78474 45.7788 8.91327C46.7727 10.1052 47.051 11.5317 46.3989 12.1002V12.0985Z" fill="url(#paint19_linear_4144_3073)"/>
<g style="mix-blend-mode:multiply">
<path d="M42.1465 13.8367C42.9192 13.1911 43.6534 12.4976 44.4495 11.8794C45.1535 11.3314 45.8676 10.7953 46.5632 10.2336C46.8531 11.0163 46.8179 11.7338 46.4006 12.0968C46.3721 12.1208 46.3436 12.1431 46.3134 12.1636L42.7097 14.7204L42.7331 14.4687L42.1482 13.8367H42.1465Z" fill="#CFD1D2"/>
</g>
<g style="mix-blend-mode:multiply">
<path d="M39.5394 11.0232L39.0332 10.4752L42.8297 7.75573C42.8532 7.73689 42.8766 7.71977 42.9018 7.70436L42.9102 7.69751C43.2035 7.51427 43.5991 7.50399 44.0298 7.64099C42.5213 8.75241 41.0312 9.88951 39.5394 11.0232Z" fill="#CFD1D2"/>
</g>
<g style="mix-blend-mode:screen" opacity="0.5">
<path d="M40.6965 12.2717L40.4082 11.96C41.1993 11.2339 42.0743 10.6088 42.9342 9.97007C43.6901 9.40837 44.493 8.9203 45.2624 8.37744C45.3713 8.47334 45.4769 8.5778 45.5825 8.68912C43.9365 9.85704 42.2117 10.9256 40.6965 12.2717Z" fill="white"/>
</g>
<path d="M44.3017 13.6126C44.1827 13.6965 44.062 13.7804 43.9379 13.8592C44.2464 13.1416 43.8793 11.8949 42.9792 10.816C42.245 9.93581 41.3265 9.3861 40.6074 9.33473C40.713 9.25424 40.8203 9.17204 40.9259 9.09155C41.6617 9.25082 42.5015 9.79539 43.1954 10.6277C44.0452 11.6466 44.4391 12.7871 44.3017 13.6108V13.6126Z" fill="#648199"/>
<path d="M42.0156 11.6054C41.0216 10.4135 39.6857 9.90661 39.0337 10.4752C38.3817 11.0437 38.6582 12.4702 39.6539 13.6621C40.6478 14.854 41.9837 15.3609 42.6357 14.7924C43.2878 14.2238 43.0112 12.7973 42.0156 11.6054Z" fill="#737679"/>
<g style="mix-blend-mode:screen" opacity="0.6">
<path d="M41.9833 11.8349C41.0279 10.6893 39.7456 10.2046 39.1204 10.7492C38.7768 11.0489 38.7031 11.5952 38.8623 12.2168C38.6394 11.5233 38.693 10.8982 39.0702 10.5711C39.697 10.0265 40.9793 10.5112 41.933 11.6568C42.3638 12.174 42.6555 12.7374 42.7862 13.2495C42.637 12.7871 42.3655 12.2922 41.9833 11.8332V11.8349Z" fill="white"/>
</g>
<path d="M41.5312 12.0319C40.9462 11.3298 40.1601 11.0318 39.7762 11.3674C39.3924 11.7014 39.555 12.5405 40.1416 13.2426C40.7266 13.9448 41.5127 14.2427 41.8966 13.9071C42.2804 13.5732 42.1178 12.734 41.5312 12.0319Z" fill="#AA7725"/>
<path d="M41.675 13.7563C41.6616 13.7683 41.6465 13.7786 41.6314 13.7889L39.8362 15.0613L39.848 14.9363L38.0059 12.948L39.8966 11.5934C39.9083 11.5849 39.92 11.5763 39.9318 11.5678L39.9368 11.5643C40.277 11.352 40.8972 11.6071 41.3649 12.1688C41.8593 12.7631 41.9985 13.4738 41.6733 13.7563H41.675Z" fill="#828487"/>
<path d="M40.9441 13.3367C41.0597 13.246 41.1737 13.1552 41.2877 13.0645C41.3933 13.3419 41.4301 13.6433 41.4033 13.9498L39.8361 15.0612L39.8479 14.9362L39.459 14.5149C39.935 14.0971 40.4462 13.7255 40.9441 13.335V13.3367Z" fill="white"/>
<path d="M41.6749 13.7563C41.6615 13.7682 41.6464 13.7785 41.6313 13.7888L41.5006 13.8813C41.5157 13.5799 41.4754 13.2785 41.3682 13.0028C41.4838 12.9103 41.5995 12.8195 41.7151 12.7288C41.9012 13.1569 41.9012 13.561 41.6749 13.758V13.7563Z" fill="#C0C2C4"/>
<path d="M40.3456 12.0457C40.5401 12.1501 40.7194 12.282 40.8652 12.4241C41.0345 12.5885 41.1619 12.7769 41.2507 12.979C41.1099 13.0903 40.9675 13.2033 40.825 13.3129C40.3439 13.6862 39.8528 14.0476 39.3952 14.45L38.4717 13.4533C38.6091 13.3523 38.7382 13.241 38.8723 13.1399C39.1354 12.943 39.3986 12.7478 39.6651 12.556C39.8947 12.3899 40.1193 12.2186 40.3439 12.0474L40.3456 12.0457Z" fill="#C0C2C4"/>
<path d="M41.332 12.9156C41.2382 12.7067 41.1057 12.5166 40.9298 12.3556C40.7806 12.2186 40.6079 12.0919 40.4219 11.9874C40.5526 11.8864 40.6834 11.7854 40.8141 11.686C41.0052 11.8008 41.1963 11.9652 41.3672 12.1707C41.4946 12.3231 41.5985 12.4841 41.6773 12.645C41.5617 12.7358 41.4477 12.8266 41.332 12.9173V12.9156Z" fill="white"/>
<path d="M40.2539 11.9977C40.0209 12.1758 39.7862 12.3539 39.5482 12.5269C39.2817 12.7204 39.0185 12.9156 38.7554 13.1125C38.638 13.1999 38.5274 13.2958 38.4101 13.3831L38.0078 12.9481L39.5935 11.811C39.8164 11.8282 40.0427 11.8967 40.2539 11.996V11.9977Z" fill="white"/>
<path d="M39.7061 11.7323L39.8988 11.5953C39.9105 11.5867 39.9223 11.5781 39.934 11.5696L39.939 11.5661C40.1368 11.4428 40.4268 11.4771 40.7268 11.6364C40.5944 11.7374 40.4637 11.8384 40.3329 11.9395C40.1335 11.8384 39.9223 11.7648 39.7061 11.734V11.7323Z" fill="#C0C2C4"/>
<path d="M39.4929 13.5116C38.9984 12.9173 38.333 12.6656 38.0078 12.9482C37.6827 13.2307 37.8218 13.9414 38.3162 14.5357C38.8107 15.1299 39.4761 15.3816 39.8013 15.0991C40.1265 14.8165 39.9874 14.1058 39.4929 13.5116Z" fill="white"/>
<path d="M40.4733 12.6723C39.3603 11.3382 37.8668 10.7714 37.1377 11.4067C36.4086 12.0421 36.7187 13.6381 37.8316 14.9722C38.9446 16.3062 40.4381 16.873 41.1672 16.2377C41.8963 15.6024 41.5862 14.0063 40.4733 12.6723Z" fill="#AA7725"/>
<path d="M40.411 12.727C39.2981 11.393 37.818 10.8142 37.1056 11.4358C36.3933 12.0557 36.7168 13.6415 37.8297 14.9756C38.9427 16.3096 40.4228 16.8884 41.1351 16.2668C41.8475 15.6469 41.524 14.0611 40.411 12.727Z" fill="url(#paint20_radial_4144_3073)"/>
<path style="mix-blend-mode:color-dodge" opacity="0.4" d="M37.836 12.2785C38.4478 12.5148 39.0646 12.8093 39.5876 13.2152C40.1172 13.6262 40.605 14.1125 40.9603 14.6914C41.1615 15.0185 41.366 15.3781 41.48 15.7565C41.4146 15.9483 41.3123 16.1128 41.1665 16.2395C40.9453 16.433 40.6519 16.5135 40.3217 16.4981C40.4474 16.01 40.4625 15.4963 40.3754 14.9928C40.2664 14.3643 40.0485 13.6673 39.5121 13.2803C38.9741 12.8932 38.2517 12.895 37.6265 13.0011C37.3884 13.0422 37.1035 13.0611 36.837 13.1244C36.7264 12.6963 36.7113 12.3007 36.7984 11.9736C37.1622 12.0267 37.5326 12.162 37.8343 12.2785H37.836Z" fill="url(#paint21_radial_4144_3073)"/>
<path d="M39.8746 13.1654C39.7472 13.0113 39.5745 12.9462 39.4907 13.0198C39.4069 13.0935 39.4421 13.2767 39.5712 13.4291C39.6986 13.5832 39.8712 13.6483 39.955 13.5747C40.0388 13.501 40.0036 13.3178 39.8746 13.1654Z" fill="#696768"/>
<path d="M39.875 13.1654C39.8046 13.0797 39.7091 13.0438 39.6621 13.0849C39.6152 13.126 39.6353 13.227 39.7057 13.3126C39.7761 13.3983 39.8716 13.4342 39.9186 13.3931C39.9655 13.352 39.9454 13.251 39.875 13.1654Z" fill="#151515"/>
<path d="M37.0806 11.6446C37.0521 11.6532 37.0337 11.684 37.0421 11.7149L37.7092 14.3333C37.7176 14.3641 37.7477 14.3829 37.7779 14.3744C37.8081 14.3675 37.8265 14.335 37.8181 14.3042L37.151 11.6857C37.1426 11.6549 37.1125 11.6361 37.0823 11.6446C37.0823 11.6446 37.0823 11.6446 37.0806 11.6446Z" fill="#AA7725"/>
<path d="M38.227 14.8882C38.2153 14.8916 38.2036 14.8985 38.1969 14.9105C38.1767 14.9379 38.1818 14.9772 38.2086 14.9995L39.8428 16.313C39.8697 16.3353 39.9082 16.3301 39.9283 16.301C39.9484 16.2736 39.9434 16.2325 39.9166 16.212L38.2823 14.8985C38.2656 14.8848 38.2455 14.8813 38.2287 14.8882H38.227Z" fill="#AA7725"/>
<path d="M40.7208 13.1963L38.1629 14.6057C38.1479 14.6006 38.1344 14.5903 38.1261 14.5715C38.116 14.5475 38.1177 14.5252 38.1261 14.5064L40.6722 13.1038C40.6973 13.0901 40.7291 13.0987 40.7425 13.1261C40.756 13.1518 40.7476 13.1843 40.7208 13.198V13.1963Z" fill="#AA7725"/>
<path d="M43.0121 11.5436C42.7976 11.2028 42.107 10.2199 40.9538 9.70098L40.4174 10.1462C40.3286 10.1051 40.2783 10.0846 40.2783 10.0846L40.9119 9.55713C42.3216 10.1908 43.1194 11.4614 43.1194 11.4614L43.0105 11.5436H43.0121Z" fill="#737679"/>
<path d="M43.012 11.5436L42.5158 11.9152C41.8236 10.8774 40.7894 10.3226 40.4189 10.1479L40.9553 9.70264C42.1085 10.2215 42.7991 11.2028 43.0136 11.5453L43.012 11.5436Z" fill="white"/>
<g style="mix-blend-mode:multiply">
<path d="M42.6233 11.2798C42.6317 11.273 42.6401 11.2661 42.6485 11.2593C42.6971 11.3261 42.7356 11.3826 42.7591 11.4203L42.511 11.6069C42.4758 11.5538 42.4389 11.5059 42.4004 11.4579C42.4775 11.4031 42.5479 11.3398 42.6216 11.2798H42.6233Z" fill="#737679"/>
</g>
<g style="mix-blend-mode:multiply">
<path d="M42.4375 11.0796C42.4509 11.0711 42.4643 11.0608 42.4777 11.0522C42.523 11.1002 42.5615 11.1481 42.5967 11.1927C42.5163 11.2646 42.4274 11.3331 42.342 11.3879C42.3 11.3399 42.2565 11.2937 42.2129 11.2509C42.2866 11.1927 42.3587 11.1327 42.4341 11.0814L42.4375 11.0796Z" fill="#5C5E4F"/>
</g>
<path d="M42.2678 10.8467C42.3197 10.8912 42.3683 10.9374 42.4119 10.9837C42.3918 10.9974 42.3717 11.0111 42.3499 11.0265C42.2795 11.0779 42.2141 11.1327 42.1454 11.1858C42.0935 11.1378 42.0415 11.095 41.9912 11.0556C42.0834 10.9888 42.1756 10.9203 42.2661 10.8484L42.2678 10.8467Z" fill="#648199"/>
<path d="M38.2823 14.9191L38.0711 15.104L37.627 14.4276L37.803 14.2769C37.803 14.2769 37.8164 14.2615 37.8247 14.2563C37.9253 14.1844 38.108 14.2735 38.2354 14.4567C38.3611 14.6399 38.3829 14.8472 38.2823 14.9191Z" fill="url(#paint22_radial_4144_3073)"/>
<path d="M38.0355 14.6296C37.9098 14.4463 37.7254 14.3573 37.6249 14.4292C37.5243 14.5011 37.5461 14.7083 37.6718 14.8916C37.7975 15.0748 37.9819 15.1639 38.0824 15.0919C38.183 15.02 38.1612 14.8128 38.0355 14.6296Z" fill="#AA7725"/>
<path d="M37.9033 14.7134C37.853 14.6398 37.7776 14.6038 37.7374 14.6329C37.6972 14.662 37.7055 14.7459 37.7558 14.8196C37.8061 14.8932 37.8815 14.9292 37.9218 14.9001C37.962 14.8709 37.9536 14.787 37.9033 14.7134Z" fill="#65470D"/>
<path d="M44.6561 12.1003C44.6276 11.9033 44.5002 11.7578 44.3729 11.7783C44.2455 11.7989 44.1667 11.9735 44.1969 12.1722C44.227 12.3691 44.3527 12.5147 44.4801 12.4941C44.6075 12.4753 44.6863 12.2989 44.6561 12.1003Z" fill="#737679"/>
<g style="mix-blend-mode:multiply">
<path d="M44.6327 12.1294C44.6126 11.989 44.5221 11.8862 44.4316 11.8999C44.3411 11.9136 44.2858 12.0386 44.3059 12.179C44.326 12.3195 44.4165 12.4222 44.507 12.4085C44.5975 12.3948 44.6528 12.2698 44.6327 12.1294Z" fill="#6E7E86"/>
</g>
<path d="M47.3652 14.2751C47.4239 13.5216 47.5597 11.7817 47.6351 10.8296L48.2586 10.893C48.1798 11.8485 48.0357 13.609 47.9737 14.3591L47.3652 14.2751Z" fill="url(#paint23_linear_4144_3073)"/>
<path d="M47.6367 10.8022L48.2602 10.8656C48.2753 10.8656 48.287 10.881 48.2853 10.8964L48.0004 14.3625C48.0004 14.3625 47.9954 14.3779 47.9903 14.3831C47.9836 14.3882 47.9769 14.3899 47.9685 14.3899L47.3601 14.306C47.345 14.3043 47.335 14.2906 47.335 14.2752L47.6048 10.8296C47.6048 10.8296 47.6098 10.8142 47.6149 10.8091C47.6182 10.8057 47.6233 10.804 47.6283 10.8022C47.63 10.8022 47.6333 10.8022 47.635 10.8022H47.6367ZM47.9468 14.3283L48.2267 10.9221L47.6601 10.8639L47.3953 14.2529L47.9484 14.33L47.9468 14.3283Z" fill="#007B9C"/>
<path d="M46.7568 14.1911C46.8121 13.4342 46.9412 11.7131 47.0116 10.7661L47.6351 10.8295C47.5614 11.7799 47.4256 13.5215 47.3653 14.275L46.7568 14.1911Z" fill="url(#paint24_linear_4144_3073)"/>
<path d="M47.0132 10.7388L47.6367 10.8021C47.6518 10.8021 47.6635 10.8175 47.6619 10.833L47.392 14.2785C47.392 14.2785 47.387 14.2939 47.3819 14.2991C47.3752 14.3042 47.3685 14.3059 47.3601 14.3059L46.7517 14.222C46.7366 14.2203 46.7266 14.2066 46.7266 14.1912C46.7819 13.4342 46.9109 11.7132 46.9813 10.7662C46.9813 10.7576 46.9864 10.7508 46.9914 10.7456C46.9947 10.7422 46.9998 10.7405 47.0048 10.7388C47.0065 10.7388 47.0098 10.7388 47.0115 10.7388H47.0132ZM47.3384 14.2426L47.6032 10.8569L47.0367 10.7987C46.9663 11.7389 46.8439 13.4034 46.7869 14.1655L47.34 14.2426H47.3384Z" fill="#007B9C"/>
<path d="M46.1484 14.1071C46.2021 13.3467 46.3211 11.6445 46.3881 10.7043L47.0117 10.7677C46.9413 11.7147 46.8139 13.4358 46.7569 14.1927L46.1484 14.1088V14.1071Z" fill="url(#paint25_linear_4144_3073)"/>
<path d="M46.3897 10.6753L47.0132 10.7387C47.0283 10.7387 47.04 10.7541 47.0384 10.7695C46.968 11.7148 46.8406 13.4376 46.7836 14.1945C46.7836 14.203 46.7786 14.2099 46.7735 14.215C46.7668 14.2202 46.7601 14.2219 46.7518 14.2219L46.1433 14.138C46.1282 14.1363 46.1182 14.1226 46.1182 14.1071C46.1651 13.4495 46.2606 12.0881 46.3277 11.1223L46.3579 10.7044C46.3579 10.7044 46.3612 10.689 46.3679 10.6839C46.3713 10.6804 46.3763 10.6787 46.3813 10.677C46.383 10.677 46.3864 10.677 46.388 10.677L46.3897 10.6753ZM46.73 14.1585C46.7869 13.3947 46.9093 11.7319 46.9797 10.7935L46.4132 10.7352L46.3864 11.124C46.3193 12.0761 46.2254 13.4136 46.1785 14.0815L46.7316 14.1585H46.73Z" fill="#007B9C"/>
<path d="M45.54 14.0233C45.5903 13.2595 45.7026 11.5779 45.7646 10.6411L46.3882 10.7045C46.3211 11.6464 46.2021 13.3469 46.1485 14.1072L45.54 14.0233Z" fill="url(#paint26_linear_4144_3073)"/>
<path d="M45.7662 10.6121L46.3897 10.6754C46.4048 10.6754 46.4166 10.6908 46.4149 10.7062L46.3864 11.1138C46.3177 12.0797 46.2221 13.4497 46.1752 14.1107C46.1752 14.1193 46.1702 14.1261 46.1651 14.1313C46.1584 14.1364 46.1517 14.1381 46.1434 14.1381L45.5349 14.0542C45.5198 14.0525 45.5098 14.0388 45.5098 14.0234C45.5567 13.3247 45.6539 11.857 45.7176 10.8946L45.7344 10.6412C45.7344 10.6412 45.7377 10.6258 45.7444 10.6206C45.7478 10.6172 45.7528 10.6155 45.7578 10.6138C45.7595 10.6138 45.7629 10.6138 45.7645 10.6138L45.7662 10.6121ZM46.1216 14.0747C46.1685 13.4034 46.264 12.0608 46.3294 11.1087L46.3562 10.7302L45.7897 10.672L45.7746 10.8963C45.7109 11.8468 45.6154 13.2887 45.5684 13.9977L46.1216 14.0747Z" fill="#007B9C"/>
<path d="M44.9297 13.9395C44.9766 13.1723 45.0822 11.5095 45.1392 10.5779L45.7627 10.6412C45.7007 11.578 45.5884 13.2614 45.5381 14.0234L44.9297 13.9395Z" fill="url(#paint27_linear_4144_3073)"/>
<path d="M45.1427 10.5488L45.7663 10.6122C45.7813 10.6122 45.7931 10.6276 45.7914 10.643L45.7746 10.9033C45.711 11.8657 45.6137 13.3282 45.5668 14.0252C45.5668 14.0338 45.5618 14.0406 45.5567 14.0458C45.55 14.0509 45.5433 14.0526 45.535 14.0526L44.9265 13.9687C44.9114 13.967 44.9014 13.9533 44.9014 13.9379C44.9483 13.1707 45.0539 11.5078 45.1109 10.5762C45.1109 10.5677 45.1142 10.5608 45.1209 10.5557C45.1243 10.5523 45.1293 10.5505 45.1344 10.5488C45.136 10.5488 45.1394 10.5488 45.1411 10.5488H45.1427ZM45.5132 13.991C45.5601 13.282 45.6556 11.8486 45.7177 10.8999L45.7327 10.667L45.1662 10.6088C45.1075 11.5352 45.007 13.145 44.96 13.9139L45.5132 13.991Z" fill="#007B9C"/>
<path d="M44.4502 13.8726L44.5759 10.5195L45.1408 10.5778C45.0821 11.5094 44.9782 13.1739 44.9313 13.9394L44.4502 13.8726Z" fill="url(#paint28_linear_4144_3073)"/>
<path d="M44.5794 10.4905L45.1443 10.5487C45.1594 10.5487 45.1711 10.5641 45.1694 10.5795C45.1108 11.5111 45.0069 13.1757 44.9599 13.9412C44.9599 13.9497 44.9549 13.9566 44.9499 13.9617C44.9432 13.9669 44.9365 13.9686 44.9281 13.9686L44.447 13.9018C44.4319 13.9001 44.4219 13.8864 44.4219 13.8727L44.5476 10.5196C44.5476 10.5196 44.5509 10.5042 44.5576 10.499C44.561 10.4956 44.566 10.4922 44.5727 10.4922C44.5744 10.4922 44.5778 10.4922 44.5794 10.4922V10.4905ZM44.9046 13.9052C44.9532 13.1329 45.0538 11.5265 45.1108 10.6018L44.6029 10.5504L44.4789 13.8453L44.9046 13.9035V13.9052Z" fill="#007B9C"/>
<path d="M48.582 14.4447C48.6457 13.6997 48.7999 11.9187 48.8821 10.958L49.5056 11.0214C49.4184 11.9855 49.2575 13.7888 49.1905 14.5286L48.582 14.4447Z" fill="url(#paint29_linear_4144_3073)"/>
<path d="M48.8856 10.929L49.5091 10.9923C49.5242 10.9923 49.5359 11.0077 49.5343 11.0231L49.2191 14.5303C49.2191 14.5303 49.2141 14.5458 49.2091 14.5509C49.2024 14.556 49.1957 14.5578 49.1873 14.556L48.5789 14.4721C48.5638 14.4704 48.5537 14.4567 48.5537 14.4413L48.8537 10.9546C48.8537 10.9546 48.8588 10.9392 48.8638 10.9341C48.8672 10.9307 48.8722 10.929 48.8772 10.9272C48.8789 10.9272 48.8822 10.9272 48.8839 10.9272L48.8856 10.929ZM49.1655 14.4961L49.4756 11.0471L48.9091 10.9889L48.6141 14.419L49.1655 14.4961Z" fill="#007B9C"/>
<path d="M47.9736 14.3606C48.0357 13.6106 48.1798 11.8501 48.2586 10.8945L48.8821 10.9579C48.8 11.9186 48.6458 13.6996 48.5821 14.4445L47.9736 14.3606Z" fill="url(#paint30_linear_4144_3073)"/>
<path d="M48.2602 10.8655L48.8837 10.9288C48.8988 10.9288 48.9105 10.9443 48.9088 10.9597L48.6088 14.4463C48.6088 14.4463 48.6038 14.4617 48.5987 14.4669C48.592 14.472 48.5853 14.4737 48.5769 14.4737L47.9685 14.3898C47.9534 14.3881 47.9434 14.3744 47.9434 14.359L48.2283 10.8929C48.2283 10.8929 48.2333 10.8775 48.2384 10.8723C48.2417 10.8689 48.2467 10.8672 48.2518 10.8655C48.2534 10.8655 48.2568 10.8655 48.2585 10.8655H48.2602ZM48.5552 14.4121L48.8502 10.9836L48.2836 10.9254L48.0037 14.335L48.5552 14.4121Z" fill="#007B9C"/>
<path d="M52.0129 11.2765L51.6375 14.8676L51.0156 14.7803L51.3777 11.2114L52.0129 11.2765Z" fill="url(#paint31_linear_4144_3073)"/>
<path d="M51.3794 11.1824L52.0163 11.2475C52.0163 11.2475 52.0314 11.2526 52.0348 11.2577C52.0398 11.2629 52.0415 11.2714 52.0415 11.2783L51.666 14.8694C51.666 14.8694 51.661 14.8848 51.656 14.8882C51.6493 14.8934 51.6426 14.8951 51.6342 14.8934L51.0107 14.8077C50.9956 14.806 50.9838 14.7923 50.9855 14.7752L51.3476 11.2064C51.3476 11.1927 51.3593 11.1824 51.371 11.1807C51.3727 11.1807 51.3761 11.1807 51.3777 11.1807L51.3794 11.1824ZM51.6124 14.8334L51.9811 11.3023L51.4012 11.244L51.0459 14.7564L51.6124 14.8351V14.8334Z" fill="#007B9C"/>
<path d="M51.0157 14.7802L50.4072 14.6963C50.4776 13.9667 50.6586 12.1224 50.7525 11.1479L51.376 11.2113L51.014 14.7802H51.0157Z" fill="url(#paint32_linear_4144_3073)"/>
<path d="M50.7558 11.1189L51.3793 11.1823C51.3793 11.1823 51.3944 11.1874 51.3977 11.1925C51.4028 11.1977 51.4044 11.2062 51.4044 11.2131L51.0424 14.7819C51.0424 14.7819 51.0374 14.7974 51.0323 14.8025C51.0256 14.8076 51.0189 14.8093 51.0105 14.8076L50.4021 14.7237C50.387 14.722 50.377 14.7083 50.377 14.6929L50.7222 11.1446C50.7222 11.1309 50.734 11.1206 50.7457 11.1189C50.7474 11.1189 50.7507 11.1189 50.7524 11.1189H50.7558ZM50.9904 14.7477L51.3458 11.2371L50.7792 11.1788L50.439 14.6706L50.9904 14.7477Z" fill="#007B9C"/>
<path d="M49.1904 14.5284C49.2575 13.7886 49.4184 11.9854 49.5055 11.0212L50.1291 11.0846C50.0386 12.0539 49.8676 13.8777 49.7989 14.6124L49.1904 14.5284Z" fill="url(#paint33_linear_4144_3073)"/>
<path d="M49.5091 10.9922L50.1326 11.0555C50.1477 11.0555 50.1594 11.071 50.1577 11.0864L49.8275 14.6141C49.8275 14.6141 49.8225 14.6295 49.8175 14.6347C49.8108 14.6398 49.8041 14.6415 49.7957 14.6415L49.1873 14.5576C49.1722 14.5559 49.1621 14.5422 49.1621 14.5268L49.4772 11.0196C49.4772 11.0196 49.4823 11.0042 49.4873 10.999C49.4906 10.9956 49.4957 10.9939 49.5007 10.9922C49.5024 10.9922 49.5057 10.9922 49.5074 10.9922H49.5091ZM49.7739 14.5799L50.0991 11.1103L49.5325 11.0521L49.2224 14.5028L49.7739 14.5799Z" fill="#007B9C"/>
<path d="M49.7988 14.6125C49.8676 13.8778 50.0385 12.054 50.129 11.0847L50.7526 11.1481C50.657 12.1225 50.4777 13.9669 50.4073 14.6964L49.7988 14.6125Z" fill="url(#paint34_linear_4144_3073)"/>
<path d="M50.1323 11.0557L50.7558 11.119C50.7558 11.119 50.7709 11.1242 50.7742 11.1293C50.7793 11.1344 50.781 11.143 50.781 11.1499L50.434 14.6982C50.434 14.6982 50.429 14.7136 50.4239 14.7187C50.4172 14.7238 50.4105 14.7256 50.4021 14.7238L49.7937 14.6399C49.7786 14.6382 49.7686 14.6245 49.7686 14.6091L50.0988 11.0814C50.0988 11.0814 50.1038 11.0659 50.1088 11.0625C50.1122 11.0591 50.1172 11.0574 50.1222 11.0557C50.1239 11.0557 50.1273 11.0557 50.1289 11.0557H50.1323ZM50.382 14.6639L50.7223 11.1738L50.1557 11.1156L49.8306 14.5868L50.382 14.6639Z" fill="#007B9C"/>
<g style="mix-blend-mode:multiply">
<path d="M44.5439 11.3639L44.5473 11.28L51.9291 12.0781L51.9207 12.1603L44.5439 11.3639Z" fill="#71C0EB"/>
<path d="M51.8178 13.1414L44.5098 12.2441L44.5131 12.1602L51.8262 13.0575L51.8178 13.1414Z" fill="#71C0EB"/>
<path d="M51.711 14.1656L44.4717 13.2785L44.475 13.1929L51.7194 14.0834L51.711 14.1656Z" fill="#71C0EB"/>
</g>
<g style="mix-blend-mode:multiply" opacity="0.3">
<path d="M51.6378 14.8676L52.0133 11.2765L44.5762 10.5195L51.6378 14.8676Z" fill="#008BB8"/>
</g>
<defs>
<linearGradient id="paint0_linear_4144_3073" x1="4.70243" y1="27.0006" x2="54.0029" y2="27.0006" gradientUnits="userSpaceOnUse">
<stop offset="0.01" stop-color="#298CD7"/>
<stop offset="0.02" stop-color="#288DD7"/>
<stop offset="0.43" stop-color="#26B4E4"/>
<stop offset="0.76" stop-color="#25CCEC"/>
<stop offset="0.96" stop-color="#25D5F0"/>
</linearGradient>
<linearGradient id="paint1_linear_4144_3073" x1="4.29248" y1="9.86136" x2="9.5497" y2="46.4955" gradientUnits="userSpaceOnUse">
<stop stop-color="#1FB7CF"/>
<stop offset="0.1" stop-color="#39BBB8"/>
<stop offset="0.29" stop-color="#7BC77E"/>
<stop offset="0.41" stop-color="#A4CF5B"/>
<stop offset="0.47" stop-color="#B1C74F"/>
<stop offset="0.58" stop-color="#D4B32F"/>
<stop offset="0.66" stop-color="#F1A317"/>
<stop offset="0.82" stop-color="#FF6A33"/>
<stop offset="0.86" stop-color="#FC6331"/>
<stop offset="0.91" stop-color="#F5502E"/>
<stop offset="0.97" stop-color="#E93128"/>
<stop offset="1" stop-color="#E11C24"/>
</linearGradient>
<linearGradient id="paint2_linear_4144_3073" x1="26.8554" y1="16.47" x2="30.548" y2="36.9733" gradientUnits="userSpaceOnUse">
<stop stop-color="#AECE35"/>
<stop offset="0.34" stop-color="#ABCC36"/>
<stop offset="0.54" stop-color="#A2C939"/>
<stop offset="0.72" stop-color="#94C340"/>
<stop offset="0.87" stop-color="#80BB49"/>
<stop offset="1" stop-color="#68B254"/>
</linearGradient>
<linearGradient id="paint3_linear_4144_3073" x1="34.5101" y1="21.8056" x2="36.932" y2="35.2853" gradientUnits="userSpaceOnUse">
<stop stop-color="#AECE35"/>
<stop offset="0.34" stop-color="#ABCC36"/>
<stop offset="0.54" stop-color="#A2C939"/>
<stop offset="0.72" stop-color="#94C340"/>
<stop offset="0.87" stop-color="#80BB49"/>
<stop offset="1" stop-color="#68B254"/>
</linearGradient>
<linearGradient id="paint4_linear_4144_3073" x1="16.2644" y1="21.8547" x2="18.8602" y2="19.8691" gradientUnits="userSpaceOnUse">
<stop offset="0.01" stop-color="#298CD7"/>
<stop offset="0.02" stop-color="#288DD7"/>
<stop offset="0.43" stop-color="#26B4E4"/>
<stop offset="0.76" stop-color="#25CCEC"/>
<stop offset="0.96" stop-color="#25D5F0"/>
</linearGradient>
<linearGradient id="paint5_linear_4144_3073" x1="10.4244" y1="33.1725" x2="26.5203" y2="20.8642" gradientUnits="userSpaceOnUse">
<stop offset="0.01" stop-color="#298CD7"/>
<stop offset="0.02" stop-color="#288DD7"/>
<stop offset="0.43" stop-color="#26B4E4"/>
<stop offset="0.76" stop-color="#25CCEC"/>
<stop offset="0.96" stop-color="#25D5F0"/>
</linearGradient>
<linearGradient id="paint6_linear_4144_3073" x1="34.9879" y1="12.3125" x2="38.3725" y2="8.78203" gradientUnits="userSpaceOnUse">
<stop stop-color="#E3F3FC"/>
<stop offset="0.28" stop-color="#3DB8C9"/>
<stop offset="0.36" stop-color="#36B1C5"/>
<stop offset="0.46" stop-color="#239EBA"/>
<stop offset="0.58" stop-color="#0480A9"/>
<stop offset="0.6" stop-color="#007CA7"/>
<stop offset="0.73" stop-color="#066690"/>
<stop offset="0.87" stop-color="#0F4D75"/>
</linearGradient>
<linearGradient id="paint7_linear_4144_3073" x1="34.6799" y1="12.017" x2="38.0645" y2="8.48654" gradientUnits="userSpaceOnUse">
<stop stop-color="#E3F3FC"/>
<stop offset="0.28" stop-color="#3DB8C9"/>
<stop offset="0.36" stop-color="#36B1C5"/>
<stop offset="0.46" stop-color="#239EBA"/>
<stop offset="0.58" stop-color="#0480A9"/>
<stop offset="0.6" stop-color="#007CA7"/>
<stop offset="0.73" stop-color="#066690"/>
<stop offset="0.87" stop-color="#0F4D75"/>
</linearGradient>
<linearGradient id="paint8_linear_4144_3073" x1="34.3726" y1="11.7213" x2="37.7572" y2="8.1908" gradientUnits="userSpaceOnUse">
<stop stop-color="#E3F3FC"/>
<stop offset="0.28" stop-color="#3DB8C9"/>
<stop offset="0.36" stop-color="#36B1C5"/>
<stop offset="0.46" stop-color="#239EBA"/>
<stop offset="0.58" stop-color="#0480A9"/>
<stop offset="0.6" stop-color="#007CA7"/>
<stop offset="0.73" stop-color="#066690"/>
<stop offset="0.87" stop-color="#0F4D75"/>
</linearGradient>
<linearGradient id="paint9_linear_4144_3073" x1="34.0646" y1="11.4258" x2="37.4492" y2="7.89536" gradientUnits="userSpaceOnUse">
<stop stop-color="#E3F3FC"/>
<stop offset="0.28" stop-color="#3DB8C9"/>
<stop offset="0.36" stop-color="#36B1C5"/>
<stop offset="0.46" stop-color="#239EBA"/>
<stop offset="0.58" stop-color="#0480A9"/>
<stop offset="0.6" stop-color="#007CA7"/>
<stop offset="0.73" stop-color="#066690"/>
<stop offset="0.87" stop-color="#0F4D75"/>
</linearGradient>
<linearGradient id="paint10_linear_4144_3073" x1="33.7561" y1="11.1301" x2="37.1407" y2="7.59961" gradientUnits="userSpaceOnUse">
<stop stop-color="#E3F3FC"/>
<stop offset="0.28" stop-color="#3DB8C9"/>
<stop offset="0.36" stop-color="#36B1C5"/>
<stop offset="0.46" stop-color="#239EBA"/>
<stop offset="0.58" stop-color="#0480A9"/>
<stop offset="0.6" stop-color="#007CA7"/>
<stop offset="0.73" stop-color="#066690"/>
<stop offset="0.87" stop-color="#0F4D75"/>
</linearGradient>
<linearGradient id="paint11_linear_4144_3073" x1="33.4626" y1="10.8497" x2="36.8472" y2="7.31929" gradientUnits="userSpaceOnUse">
<stop stop-color="#E3F3FC"/>
<stop offset="0.28" stop-color="#3DB8C9"/>
<stop offset="0.36" stop-color="#36B1C5"/>
<stop offset="0.46" stop-color="#239EBA"/>
<stop offset="0.58" stop-color="#0480A9"/>
<stop offset="0.6" stop-color="#007CA7"/>
<stop offset="0.73" stop-color="#066690"/>
<stop offset="0.87" stop-color="#0F4D75"/>
</linearGradient>
<linearGradient id="paint12_linear_4144_3073" x1="35.6058" y1="12.9034" x2="38.9904" y2="9.37298" gradientUnits="userSpaceOnUse">
<stop stop-color="#E3F3FC"/>
<stop offset="0.28" stop-color="#3DB8C9"/>
<stop offset="0.36" stop-color="#36B1C5"/>
<stop offset="0.46" stop-color="#239EBA"/>
<stop offset="0.58" stop-color="#0480A9"/>
<stop offset="0.6" stop-color="#007CA7"/>
<stop offset="0.73" stop-color="#066690"/>
<stop offset="0.87" stop-color="#0F4D75"/>
</linearGradient>
<linearGradient id="paint13_linear_4144_3073" x1="35.2981" y1="12.6079" x2="38.6827" y2="9.07749" gradientUnits="userSpaceOnUse">
<stop stop-color="#E3F3FC"/>
<stop offset="0.28" stop-color="#3DB8C9"/>
<stop offset="0.36" stop-color="#36B1C5"/>
<stop offset="0.46" stop-color="#239EBA"/>
<stop offset="0.58" stop-color="#0480A9"/>
<stop offset="0.6" stop-color="#007CA7"/>
<stop offset="0.73" stop-color="#066690"/>
<stop offset="0.87" stop-color="#0F4D75"/>
</linearGradient>
<linearGradient id="paint14_linear_4144_3073" x1="36.8414" y1="14.0887" x2="40.226" y2="10.5583" gradientUnits="userSpaceOnUse">
<stop stop-color="#E3F3FC"/>
<stop offset="0.28" stop-color="#3DB8C9"/>
<stop offset="0.36" stop-color="#36B1C5"/>
<stop offset="0.46" stop-color="#239EBA"/>
<stop offset="0.58" stop-color="#0480A9"/>
<stop offset="0.6" stop-color="#007CA7"/>
<stop offset="0.73" stop-color="#066690"/>
<stop offset="0.87" stop-color="#0F4D75"/>
</linearGradient>
<linearGradient id="paint15_linear_4144_3073" x1="36.5296" y1="13.7901" x2="39.9142" y2="10.2597" gradientUnits="userSpaceOnUse">
<stop stop-color="#E3F3FC"/>
<stop offset="0.28" stop-color="#3DB8C9"/>
<stop offset="0.36" stop-color="#36B1C5"/>
<stop offset="0.46" stop-color="#239EBA"/>
<stop offset="0.58" stop-color="#0480A9"/>
<stop offset="0.6" stop-color="#007CA7"/>
<stop offset="0.73" stop-color="#066690"/>
<stop offset="0.87" stop-color="#0F4D75"/>
</linearGradient>
<linearGradient id="paint16_linear_4144_3073" x1="35.9131" y1="13.1991" x2="39.2977" y2="9.66869" gradientUnits="userSpaceOnUse">
<stop stop-color="#E3F3FC"/>
<stop offset="0.28" stop-color="#3DB8C9"/>
<stop offset="0.36" stop-color="#36B1C5"/>
<stop offset="0.46" stop-color="#239EBA"/>
<stop offset="0.58" stop-color="#0480A9"/>
<stop offset="0.6" stop-color="#007CA7"/>
<stop offset="0.73" stop-color="#066690"/>
<stop offset="0.87" stop-color="#0F4D75"/>
</linearGradient>
<linearGradient id="paint17_linear_4144_3073" x1="36.2214" y1="13.4946" x2="39.6059" y2="9.96418" gradientUnits="userSpaceOnUse">
<stop stop-color="#E3F3FC"/>
<stop offset="0.28" stop-color="#3DB8C9"/>
<stop offset="0.36" stop-color="#36B1C5"/>
<stop offset="0.46" stop-color="#239EBA"/>
<stop offset="0.58" stop-color="#0480A9"/>
<stop offset="0.6" stop-color="#007CA7"/>
<stop offset="0.73" stop-color="#066690"/>
<stop offset="0.87" stop-color="#0F4D75"/>
</linearGradient>
<linearGradient id="paint18_linear_4144_3073" x1="44.607" y1="6.05074" x2="50.9599" y2="11.125" gradientUnits="userSpaceOnUse">
<stop offset="0.46" stop-color="#E5E0DF"/>
<stop offset="1" stop-color="#8CA99C"/>
</linearGradient>
<linearGradient id="paint19_linear_4144_3073" x1="37.9421" y1="6.51312" x2="52.1879" y2="17.8951" gradientUnits="userSpaceOnUse">
<stop offset="0.46" stop-color="#E5E0DF"/>
<stop offset="1" stop-color="#8CA99C"/>
</linearGradient>
<radialGradient id="paint20_radial_4144_3073" cx="0" cy="0" r="1" gradientUnits="userSpaceOnUse" gradientTransform="translate(35.8381 16.3275) rotate(-16.7257) scale(6.15214 6.26369)">
<stop offset="0.46" stop-color="#E9DCA3"/>
<stop offset="1" stop-color="#A88034"/>
</radialGradient>
<radialGradient id="paint21_radial_4144_3073" cx="0" cy="0" r="1" gradientUnits="userSpaceOnUse" gradientTransform="translate(43.4839 8.23381) rotate(-16.7257) scale(8.03104 8.17664)">
<stop offset="0.46" stop-color="#E5E0DF"/>
<stop offset="1" stop-color="#77787B"/>
</radialGradient>
<radialGradient id="paint22_radial_4144_3073" cx="0" cy="0" r="1" gradientUnits="userSpaceOnUse" gradientTransform="translate(37.4064 15.2511) rotate(-16.7257) scale(1.09308 1.1129)">
<stop offset="0.46" stop-color="#E9DCA3"/>
<stop offset="1" stop-color="#A88034"/>
</radialGradient>
<linearGradient id="paint23_linear_4144_3073" x1="45.9767" y1="14.5801" x2="49.9709" y2="10.4135" gradientUnits="userSpaceOnUse">
<stop stop-color="#E3F3FC"/>
<stop offset="0.28" stop-color="#3DB8C9"/>
<stop offset="0.36" stop-color="#36B1C5"/>
<stop offset="0.46" stop-color="#239EBA"/>
<stop offset="0.58" stop-color="#0480A9"/>
<stop offset="0.6" stop-color="#007CA7"/>
<stop offset="0.73" stop-color="#066690"/>
<stop offset="0.87" stop-color="#0F4D75"/>
</linearGradient>
<linearGradient id="paint24_linear_4144_3073" x1="45.6137" y1="14.2323" x2="49.6079" y2="10.0657" gradientUnits="userSpaceOnUse">
<stop stop-color="#E3F3FC"/>
<stop offset="0.28" stop-color="#3DB8C9"/>
<stop offset="0.36" stop-color="#36B1C5"/>
<stop offset="0.46" stop-color="#239EBA"/>
<stop offset="0.58" stop-color="#0480A9"/>
<stop offset="0.6" stop-color="#007CA7"/>
<stop offset="0.73" stop-color="#066690"/>
<stop offset="0.87" stop-color="#0F4D75"/>
</linearGradient>
<linearGradient id="paint25_linear_4144_3073" x1="45.2504" y1="13.8827" x2="49.2446" y2="9.71613" gradientUnits="userSpaceOnUse">
<stop stop-color="#E3F3FC"/>
<stop offset="0.28" stop-color="#3DB8C9"/>
<stop offset="0.36" stop-color="#36B1C5"/>
<stop offset="0.46" stop-color="#239EBA"/>
<stop offset="0.58" stop-color="#0480A9"/>
<stop offset="0.6" stop-color="#007CA7"/>
<stop offset="0.73" stop-color="#066690"/>
<stop offset="0.87" stop-color="#0F4D75"/>
</linearGradient>
<linearGradient id="paint26_linear_4144_3073" x1="44.8855" y1="13.5337" x2="48.8797" y2="9.36709" gradientUnits="userSpaceOnUse">
<stop stop-color="#E3F3FC"/>
<stop offset="0.28" stop-color="#3DB8C9"/>
<stop offset="0.36" stop-color="#36B1C5"/>
<stop offset="0.46" stop-color="#239EBA"/>
<stop offset="0.58" stop-color="#0480A9"/>
<stop offset="0.6" stop-color="#007CA7"/>
<stop offset="0.73" stop-color="#066690"/>
<stop offset="0.87" stop-color="#0F4D75"/>
</linearGradient>
<linearGradient id="paint27_linear_4144_3073" x1="44.5222" y1="13.1861" x2="48.5165" y2="9.01951" gradientUnits="userSpaceOnUse">
<stop stop-color="#E3F3FC"/>
<stop offset="0.28" stop-color="#3DB8C9"/>
<stop offset="0.36" stop-color="#36B1C5"/>
<stop offset="0.46" stop-color="#239EBA"/>
<stop offset="0.58" stop-color="#0480A9"/>
<stop offset="0.6" stop-color="#007CA7"/>
<stop offset="0.73" stop-color="#066690"/>
<stop offset="0.87" stop-color="#0F4D75"/>
</linearGradient>
<linearGradient id="paint28_linear_4144_3073" x1="44.1748" y1="12.8531" x2="48.1691" y2="8.68652" gradientUnits="userSpaceOnUse">
<stop stop-color="#E3F3FC"/>
<stop offset="0.28" stop-color="#3DB8C9"/>
<stop offset="0.36" stop-color="#36B1C5"/>
<stop offset="0.46" stop-color="#239EBA"/>
<stop offset="0.58" stop-color="#0480A9"/>
<stop offset="0.6" stop-color="#007CA7"/>
<stop offset="0.73" stop-color="#066690"/>
<stop offset="0.87" stop-color="#0F4D75"/>
</linearGradient>
<linearGradient id="paint29_linear_4144_3073" x1="46.7046" y1="15.277" x2="50.699" y2="11.1121" gradientUnits="userSpaceOnUse">
<stop stop-color="#E3F3FC"/>
<stop offset="0.28" stop-color="#3DB8C9"/>
<stop offset="0.36" stop-color="#36B1C5"/>
<stop offset="0.46" stop-color="#239EBA"/>
<stop offset="0.58" stop-color="#0480A9"/>
<stop offset="0.6" stop-color="#007CA7"/>
<stop offset="0.73" stop-color="#066690"/>
<stop offset="0.87" stop-color="#0F4D75"/>
</linearGradient>
<linearGradient id="paint30_linear_4144_3073" x1="46.3416" y1="14.9291" x2="50.3358" y2="10.7626" gradientUnits="userSpaceOnUse">
<stop stop-color="#E3F3FC"/>
<stop offset="0.28" stop-color="#3DB8C9"/>
<stop offset="0.36" stop-color="#36B1C5"/>
<stop offset="0.46" stop-color="#239EBA"/>
<stop offset="0.58" stop-color="#0480A9"/>
<stop offset="0.6" stop-color="#007CA7"/>
<stop offset="0.73" stop-color="#066690"/>
<stop offset="0.87" stop-color="#0F4D75"/>
</linearGradient>
<linearGradient id="paint31_linear_4144_3073" x1="48.1631" y1="16.6773" x2="52.1573" y2="12.5107" gradientUnits="userSpaceOnUse">
<stop stop-color="#E3F3FC"/>
<stop offset="0.28" stop-color="#3DB8C9"/>
<stop offset="0.36" stop-color="#36B1C5"/>
<stop offset="0.46" stop-color="#239EBA"/>
<stop offset="0.58" stop-color="#0480A9"/>
<stop offset="0.6" stop-color="#007CA7"/>
<stop offset="0.73" stop-color="#066690"/>
<stop offset="0.87" stop-color="#0F4D75"/>
</linearGradient>
<linearGradient id="paint32_linear_4144_3073" x1="47.7958" y1="16.3232" x2="51.79" y2="12.1566" gradientUnits="userSpaceOnUse">
<stop stop-color="#E3F3FC"/>
<stop offset="0.28" stop-color="#3DB8C9"/>
<stop offset="0.36" stop-color="#36B1C5"/>
<stop offset="0.46" stop-color="#239EBA"/>
<stop offset="0.58" stop-color="#0480A9"/>
<stop offset="0.6" stop-color="#007CA7"/>
<stop offset="0.73" stop-color="#066690"/>
<stop offset="0.87" stop-color="#0F4D75"/>
</linearGradient>
<linearGradient id="paint33_linear_4144_3073" x1="47.0679" y1="15.6263" x2="51.0621" y2="11.4597" gradientUnits="userSpaceOnUse">
<stop stop-color="#E3F3FC"/>
<stop offset="0.28" stop-color="#3DB8C9"/>
<stop offset="0.36" stop-color="#36B1C5"/>
<stop offset="0.46" stop-color="#239EBA"/>
<stop offset="0.58" stop-color="#0480A9"/>
<stop offset="0.6" stop-color="#007CA7"/>
<stop offset="0.73" stop-color="#066690"/>
<stop offset="0.87" stop-color="#0F4D75"/>
</linearGradient>
<linearGradient id="paint34_linear_4144_3073" x1="47.4328" y1="15.9756" x2="51.4253" y2="11.8092" gradientUnits="userSpaceOnUse">
<stop stop-color="#E3F3FC"/>
<stop offset="0.28" stop-color="#3DB8C9"/>
<stop offset="0.36" stop-color="#36B1C5"/>
<stop offset="0.46" stop-color="#239EBA"/>
<stop offset="0.58" stop-color="#0480A9"/>
<stop offset="0.6" stop-color="#007CA7"/>
<stop offset="0.73" stop-color="#066690"/>
<stop offset="0.87" stop-color="#0F4D75"/>
</linearGradient>
</defs>
</svg>
